<?xml version="1.0" standalone="no"?>
<!DOCTYPE svg PUBLIC "-//W3C//DTD SVG 1.1//EN" "http://www.w3.org/Graphics/SVG/1.1/DTD/svg11.dtd" >
<svg>
<metadata>
Created by FontForge 20120731 at Sat Jun 29 18:40:35 2019
 By www
Copyright (c) 2013 by Miguel &#38; Daniel Hernndez. All rights reserved.
</metadata>
<defs>
<font id="ArquitectaW00-Bold" horiz-adv-x="661" >
  <font-face 
    font-family="ArquitectaW00-Bold"
    font-weight="700"
    font-stretch="normal"
    units-per-em="1000"
    panose-1="1 0 0 0 0 0 0 0 0 0"
    ascent="800"
    descent="-200"
    x-height="346"
    cap-height="600"
    bbox="-169 -244 1126 875"
    underline-thickness="50"
    underline-position="-125"
    unicode-range="U+0020-FB02"
  />
<missing-glyph horiz-adv-x="554" 
d="M454 600v-600h-354v600h354zM421 59v482l-126 -241zM133 540v-479l125 239zM153 29h247l-124 236zM276 336l123 235h-246z" />
    <glyph glyph-name=".notdef" horiz-adv-x="554" 
d="M454 600v-600h-354v600h354zM421 59v482l-126 -241zM133 540v-479l125 239zM153 29h247l-124 236zM276 336l123 235h-246z" />
    <glyph glyph-name=".null" horiz-adv-x="0" 
 />
    <glyph glyph-name="nonmarkingreturn" horiz-adv-x="333" 
 />
    <glyph glyph-name="space" unicode=" " horiz-adv-x="185" 
 />
    <glyph glyph-name="exclam" unicode="!" horiz-adv-x="246" 
d="M180 561l-24 -376h-67l-25 376v39h116v-39zM60 55q0 26 18.5 44.5t44.5 18.5t44.5 -18.5t18.5 -44.5t-18.5 -44.5t-44.5 -18.5t-44.5 18.5t-18.5 44.5z" />
    <glyph glyph-name="quotedbl" unicode="&#x22;" horiz-adv-x="326" 
d="M106 463h-62v16l19 193h85v-16zM252 463h-63v16l20 193h84v-16z" />
    <glyph glyph-name="numbersign" unicode="#" horiz-adv-x="653" 
d="M499 428h122l-13 -59h-122l-35 -156h119l-13 -59h-120l-34 -154h-64l34 154h-156l-34 -154h-64l34 154h-121l13 59h122l35 156h-118l12 59h119l35 155h64l-35 -155h156l35 155h64zM231 213h156l35 156h-156z" />
    <glyph glyph-name="dollar" unicode="$" horiz-adv-x="545" 
d="M94 136q22 -17 49 -29q23 -11 56 -20t74 -9q67 0 96.5 23.5t29.5 59.5q0 17 -6.5 30.5t-23 25.5t-45 23t-71.5 23q-53 15 -92 31.5t-65 37.5t-38.5 48t-12.5 62q0 72 50 117t145 53v77h72v-77q48 -4 82 -13t57 -20q26 -12 44 -26l-54 -81q-18 13 -44 24q-22 9 -53 17
t-70 8q-57 0 -89 -19.5t-32 -55.5q0 -15 7 -27t24 -22.5t44.5 -20.5t68.5 -21q57 -15 97 -33.5t65.5 -41t37.5 -50t12 -62.5t-11.5 -66t-36 -55t-61.5 -39.5t-88 -19.5v-77h-72v76q-51 4 -88.5 16t-62.5 25q-29 15 -49 33z" />
    <glyph glyph-name="percent" unicode="%" horiz-adv-x="673" 
d="M171 613q33 0 58.5 -12t43 -32.5t26.5 -47.5t9 -57t-9 -57t-26.5 -47.5t-43 -33t-58.5 -12.5t-58.5 12.5t-43 33t-26.5 47.5t-9 57t9 57t26.5 47.5t43 32.5t58.5 12zM171 549q-31 0 -46 -23t-15 -62t15 -62t46 -23q30 0 45.5 23t15.5 62t-15.5 62t-45.5 23zM598 563
l-469 -564l-55 45l468 564zM502 291q33 0 58.5 -12t43 -33t26.5 -48t9 -57q0 -29 -9 -56t-26.5 -47.5t-43 -33t-58.5 -12.5t-58.5 12.5t-43 33t-27 47.5t-9.5 56q0 30 9.5 57t27 48t43 33t58.5 12zM502 227q-30 0 -46 -23t-16 -63q0 -38 16 -61t46 -23t45.5 23t15.5 61
q0 40 -15.5 63t-45.5 23z" />
    <glyph glyph-name="ampersand" unicode="&#x26;" horiz-adv-x="635" 
d="M52 164q0 32 10.5 57t28.5 44.5t41 34t49 26.5l-11 11q-26 26 -42.5 57.5t-16.5 71.5q0 32 12 59t34 46.5t54 30.5t71 11q42 0 74.5 -11.5t55 -31.5t34.5 -46.5t12 -56.5q0 -33 -11 -57.5t-29 -44t-42 -34.5t-50 -28l135 -128q29 55 29 119v22h95v-20q0 -47 -14 -95
t-43 -90l107 -102v-9h-116l-50 48q-35 -28 -80 -44.5t-101 -16.5q-59 0 -103 13t-73.5 36.5t-44.5 56t-15 71.5zM288 73q36 0 65 9.5t52 26.5l-160 155q-36 -19 -60.5 -41t-24.5 -56q0 -39 33.5 -66.5t94.5 -27.5zM205 457q0 -28 15.5 -50.5t41.5 -45.5q43 18 73 40t30 58
q0 29 -18.5 50t-62.5 21q-36 0 -57.5 -19.5t-21.5 -53.5z" />
    <glyph glyph-name="quotesingle" unicode="'" horiz-adv-x="180" 
d="M106 463h-62v16l19 193h85v-16z" />
    <glyph glyph-name="parenleft" unicode="(" horiz-adv-x="338" 
d="M329 610q-21 -13 -54.5 -39.5t-66 -69t-55.5 -102.5t-23 -141t23 -141.5t55.5 -103t66 -69t54.5 -39.5l-50 -69q-26 13 -68.5 45t-83 84t-70 125t-29.5 168q0 96 29.5 168.5t70 124.5t83 83.5t68.5 44.5l50 -69v0z" />
    <glyph glyph-name="parenright" unicode=")" horiz-adv-x="338" 
d="M59 679q26 -13 68.5 -44.5t83.5 -83.5t70.5 -124.5t29.5 -168.5q0 -95 -29.5 -168t-70.5 -125t-83.5 -84t-68.5 -45l-49 69q21 13 54.5 39.5t66 69t55.5 103t23 141.5t-23 141t-55.5 102.5t-66 69t-54.5 39.5z" />
    <glyph glyph-name="asterisk" unicode="*" horiz-adv-x="404" 
d="M223 623h-42l-13 77v29h70v-29zM256 569l-13 39l71 38l26 9l21 -67l-27 -8zM71 580l-28 8l22 67l26 -9l71 -38l-13 -39zM156 548l33 -24l-34 -73l-17 -22l-56 39l16 24zM306 492l17 -24l-57 -39l-16 22l-35 73l34 23z" />
    <glyph glyph-name="plus" unicode="+" horiz-adv-x="484" 
d="M285 339h157v-80h-157v-152h-83v152h-160v80h160v158h83v-158z" />
    <glyph glyph-name="comma" unicode="," horiz-adv-x="172" 
d="M25 52q0 26 17 43t43 17t43.5 -17.5t17.5 -43.5q0 -25 -6 -43t-17 -37l-38 -67h-65l35 62q3 5 6.5 9.5t5.5 7.5q3 4 6 5v5q-21 5 -34.5 20.5t-13.5 38.5z" />
    <glyph glyph-name="hyphen" unicode="-" horiz-adv-x="384" 
d="M48 332h288v-81h-288v81z" />
    <glyph glyph-name="period" unicode="." horiz-adv-x="172" 
d="M25 52q0 26 17.5 43.5t43.5 17.5t43 -17.5t17 -43.5t-17 -43t-43 -17t-43.5 17t-17.5 43z" />
    <glyph glyph-name="slash" unicode="/" horiz-adv-x="372" 
d="M124 -176h-97l221 879h97z" />
    <glyph glyph-name="zero" unicode="0" horiz-adv-x="623" 
d="M312 -14q-66 0 -116 25t-84.5 68t-52 100t-17.5 120q0 64 17.5 121t52 100t84.5 68t116 25t116 -25t84 -68t51.5 -100t17.5 -121q0 -63 -17.5 -120t-51.5 -100t-84 -68t-116 -25zM312 82q41 0 72.5 16.5t52.5 46t31.5 69t10.5 85.5t-10.5 86.5t-31.5 69.5t-52.5 46
t-72.5 17q-42 0 -73.5 -17t-52.5 -46t-31.5 -69.5t-10.5 -86.5t10.5 -85.5t31.5 -69t52.5 -46t73.5 -16.5z" />
    <glyph glyph-name="one" unicode="1" horiz-adv-x="333" 
d="M21 600h225v-600h-99v512h-126v88z" />
    <glyph glyph-name="two" unicode="2" horiz-adv-x="516" 
d="M41 20l251 286q32 35 44.5 57.5t12.5 50.5q0 44 -31.5 74t-86.5 30q-31 0 -57 -9.5t-45.5 -21.5t-31 -22.5t-13.5 -12.5l-53 79q22 23 54 41q26 15 65 28t89 13q55 0 96.5 -14.5t68.5 -39.5t40.5 -58.5t13.5 -72.5q0 -42 -15.5 -77t-49.5 -73l-167 -190h248v-88h-433v20z
" />
    <glyph glyph-name="three" unicode="3" horiz-adv-x="521" 
d="M173 285v25l136 202h-248v88h403v-20l-150 -221q81 -8 123.5 -56.5t42.5 -126.5q0 -39 -15 -73.5t-44 -60.5t-73 -41t-101 -15q-50 0 -90 12.5t-68 27.5t-44 28t-17 14l50 77q21 -19 47 -33q23 -13 53 -23t66 -10q65 0 98 29t33 72q0 46 -29.5 75.5t-85.5 29.5h-87z" />
    <glyph glyph-name="four" unicode="4" horiz-adv-x="558" 
d="M23 206l353 394h72v-377h72v-88h-72v-135h-99v135h-326v71zM155 223h194v223l-175 -199q-4 -4 -12 -10q-4 -3 -7 -4v-10z" />
    <glyph glyph-name="five" unicode="5" horiz-adv-x="515" 
d="M181 512l-4 -146q16 2 32.5 4t36.5 2q62 0 106 -14t72.5 -39t41.5 -60t13 -76q0 -43 -14.5 -79t-44 -62.5t-73 -41t-100.5 -14.5q-51 0 -91 12.5t-69 28.5q-33 18 -59 42l50 77q22 -19 48 -34q23 -13 53 -23t66 -10q63 0 96.5 29t33.5 79q0 45 -36 73t-110 28
q-67 0 -101 -10.5t-35 -11.5l-14 10l10 324h356v-88h-264z" />
    <glyph glyph-name="six" unicode="6" horiz-adv-x="520" 
d="M42 192q0 50 15.5 93t41.5 85l141 230h121l-120 -192q-5 -8 -10.5 -14.5t-10.5 -11.5q-6 -6 -11 -12v-7q15 8 30.5 12t37.5 4q50 0 90 -14t68.5 -39t44 -60t15.5 -77q0 -47 -17.5 -85t-47.5 -64t-71 -40t-88 -14q-51 0 -93 14.5t-72 41.5t-47 65t-17 85zM269 293
q-54 0 -88 -31t-34 -76q0 -49 34 -80.5t88 -31.5q57 0 89.5 32t32.5 79q0 46 -31.5 77t-90.5 31z" />
    <glyph glyph-name="seven" unicode="7" horiz-adv-x="468" 
d="M34 600h429v-23l-271 -577h-118l247 512h-287v88z" />
    <glyph glyph-name="eight" unicode="8" horiz-adv-x="543" 
d="M272 -14q-54 0 -96.5 14.5t-72 39t-44.5 57t-15 69.5q0 50 25 89t70 62q-35 23 -53 56.5t-18 73.5q0 34 14 64.5t40 53t64 35.5t86 13t85.5 -13t63.5 -35.5t40 -53t14 -64.5q0 -40 -18 -73.5t-53 -56.5q45 -23 70 -62t25 -89q0 -37 -15 -69.5t-44.5 -57t-71.5 -39
t-96 -14.5zM272 74q28 0 51 8t39 21.5t24.5 31t8.5 37.5q0 46 -34.5 75t-88.5 29t-89 -29t-35 -75q0 -20 9 -37.5t25 -31t39 -21.5t51 -8zM272 349q48 0 75.5 26t27.5 65q0 35 -27.5 60t-75.5 25t-75.5 -25t-27.5 -60q0 -39 27.5 -65t75.5 -26z" />
    <glyph glyph-name="nine" unicode="9" horiz-adv-x="522" 
d="M480 407q0 -50 -15.5 -93t-41.5 -85l-139 -229h-124l124 199q5 7 9 13t9 10q4 4 10 8v4q-31 -14 -67 -14q-50 0 -90 14t-68.5 39t-44 60t-15.5 77q0 47 17 84.5t47 64t70.5 40.5t87.5 14q51 0 93.5 -14.5t73 -41.5t47.5 -65t17 -85zM373 408q0 52 -33.5 83t-87.5 31
q-55 0 -87 -30.5t-32 -77.5q0 -46 31.5 -76t88.5 -30q25 0 46.5 7t38 19.5t26 31t9.5 42.5z" />
    <glyph glyph-name="colon" unicode=":" horiz-adv-x="208" 
d="M43 288q0 26 17 43.5t43 17.5t43.5 -17.5t17.5 -43.5t-17.5 -43t-43.5 -17t-43 17t-17 43zM43 52q0 26 17 43.5t43 17.5t43.5 -17.5t17.5 -43.5t-17.5 -43t-43.5 -17t-43 17t-17 43z" />
    <glyph glyph-name="semicolon" unicode=";" horiz-adv-x="221" 
d="M51 52q0 26 17 43.5t43 17.5t44 -18t18 -44q0 -29 -6.5 -45.5t-17.5 -34.5l-38 -67h-64l35 62q6 10 11 17q3 4 6 5v5q-21 5 -34.5 20.5t-13.5 38.5zM51 288q0 26 17.5 43.5t43.5 17.5t43.5 -17.5t17.5 -43.5t-17.5 -43t-43.5 -17t-43.5 17t-17.5 43z" />
    <glyph glyph-name="less" unicode="&#x3c;" horiz-adv-x="382" 
d="M34 276v23l240 232l58 -59l-193 -185l193 -183l-58 -60z" />
    <glyph glyph-name="equal" unicode="=" horiz-adv-x="545" 
d="M83 429h379v-80h-379v80zM83 238h379v-80h-379v80z" />
    <glyph glyph-name="greater" unicode="&#x3e;" horiz-adv-x="382" 
d="M107 44l-57 60l193 183l-193 185l57 59l241 -232v-23z" />
    <glyph glyph-name="question" unicode="?" horiz-adv-x="388" 
d="M33 580q16 9 39 16q19 6 47 11.5t64 5.5q39 0 70 -11t52 -30.5t32 -45.5t11 -55q0 -35 -10 -60t-25.5 -44.5t-33 -36t-33.5 -34t-27.5 -38t-13.5 -48.5l-2 -29h-66v37q0 43 17.5 72t38 53.5t38 49t17.5 59.5t-24 57t-63 22q-23 0 -40 -4.5t-29 -9.5q-14 -6 -25 -13z
M112 52q0 26 17 43.5t43 17.5t43.5 -17.5t17.5 -43.5t-17.5 -43t-43.5 -17t-43 17t-17 43z" />
    <glyph glyph-name="at" unicode="@" horiz-adv-x="911" 
d="M456 -244q-105 0 -183.5 34.5t-131 93t-79 135.5t-26.5 161q0 85 26.5 162.5t79.5 136.5t132 93.5t184 34.5q106 0 183 -33.5t127.5 -86.5t74.5 -117.5t24 -127.5q0 -118 -47.5 -186.5t-135.5 -68.5q-39 0 -63 10.5t-38 24.5q-16 16 -23 36h-7q-3 -6 -10.5 -17t-22.5 -22
t-38.5 -19t-57.5 -8q-36 0 -68 12.5t-55 36t-36.5 57t-13.5 75.5q0 43 13 76.5t36.5 57t55 35.5t68.5 12q28 0 48.5 -5.5t35.5 -14t24.5 -18.5t14.5 -18l13 48h63v-208q0 -34 16.5 -52.5t49.5 -18.5q46 0 72 42.5t26 119.5q0 62 -21.5 117t-63 96t-103 64.5t-141.5 23.5
q-78 0 -141 -26t-108 -72t-69 -110.5t-24 -140.5q0 -75 24 -139t68 -110.5t107 -72.5t141 -26q43 0 75.5 5t54.5 12q26 8 44 18l33 -68q-19 -12 -49 -22q-26 -8 -65 -15t-93 -7zM538 174q0 48 -27 74.5t-70 26.5q-42 0 -69 -27.5t-27 -73.5q0 -45 27 -74t69 -29
q43 0 70 27.5t27 75.5z" />
    <glyph glyph-name="A" unicode="A" horiz-adv-x="614" 
d="M297 600h19l304 -600h-113l-45 91h-311l-44 -91h-112zM310 417h-6l-108 -235l-6 -10h233l-6 10z" />
    <glyph glyph-name="B" unicode="B" horiz-adv-x="636" 
d="M591 171q0 -85 -61.5 -128t-163.5 -43h-288v600h278q104 0 160 -42t56 -121q0 -45 -22 -77t-61 -48v-9q46 -14 74 -47.5t28 -84.5zM177 264v-176h192q51 0 84.5 23t33.5 66q0 39 -31 63t-79 24h-200zM469 427q0 43 -30.5 64t-84.5 21h-177v-169h177q54 0 84.5 23t30.5 61
z" />
    <glyph glyph-name="C" unicode="C" horiz-adv-x="586" 
d="M565 62q-21 -21 -52 -38q-26 -14 -65.5 -26t-93.5 -12q-72 0 -130 24.5t-99.5 67t-64 99.5t-22.5 122q0 66 22.5 123t64 99.5t99.5 67t130 24.5q54 0 93.5 -12t65.5 -26q31 -17 52 -37l-57 -77q-19 16 -43 29q-20 11 -48 20t-61 9q-48 0 -88 -17t-68.5 -46.5t-44 -70
t-15.5 -86.5t15.5 -86t44 -69t68.5 -46t88 -17q36 0 64 8.5t48 19.5q23 12 40 29z" />
    <glyph glyph-name="D" unicode="D" 
d="M621 300q0 -67 -22.5 -122.5t-64 -95t-100.5 -61t-132 -21.5h-224v600h224q73 0 132 -21.5t100.5 -61t64 -95t22.5 -122.5zM177 512v-424h118q48 0 89 14t71.5 41t47.5 66.5t17 90.5t-17 90.5t-47.5 66.5t-71.5 41t-89 14h-118z" />
    <glyph glyph-name="E" unicode="E" horiz-adv-x="570" 
d="M479 255h-302v-167h356v-88h-455v600h455v-88h-356v-173h302v-84z" />
    <glyph glyph-name="F" unicode="F" horiz-adv-x="559" 
d="M78 600h455v-88h-356v-173h309v-84h-309v-255h-99v600z" />
    <glyph glyph-name="G" unicode="G" horiz-adv-x="670" 
d="M532 255h-195v84h298v-51q0 -68 -18.5 -123.5t-54.5 -95t-89 -61.5t-121 -22q-73 0 -131.5 24.5t-99 67t-62 99.5t-21.5 122q0 66 22 123t63 99.5t99.5 67t131.5 24.5q58 0 100 -12.5t70 -26.5q33 -17 54 -38l-59 -76q-19 16 -44 29q-21 11 -52 20.5t-70 9.5
q-48 0 -87.5 -17t-67.5 -46.5t-43 -70t-15 -86.5t14.5 -86t42 -69t66.5 -46t88 -17q41 0 74.5 13t57 35.5t36.5 54t13 68.5v3z" />
    <glyph glyph-name="H" unicode="H" horiz-adv-x="678" 
d="M600 0h-99v252h-324v-252h-99v600h99v-264h324v264h99v-600z" />
    <glyph glyph-name="I" unicode="I" horiz-adv-x="256" 
d="M177 0h-99v600h99v-600z" />
    <glyph glyph-name="J" unicode="J" horiz-adv-x="466" 
d="M65 117q14 -10 31 -18q14 -7 33.5 -12t42.5 -5q60 0 90.5 32t31.5 104v382h100v-401q0 -47 -13.5 -86.5t-40 -67.5t-66.5 -43.5t-95 -15.5q-38 0 -67 7t-49 16t-31 17t-13 10z" />
    <glyph glyph-name="K" unicode="K" horiz-adv-x="611" 
d="M177 295l301 305h120v-12l-237 -241l237 -334v-13h-117l-191 275l-113 -116v-159h-99v600h99v-305z" />
    <glyph glyph-name="L" unicode="L" horiz-adv-x="522" 
d="M78 0v600h99v-512h333v-88h-432z" />
    <glyph glyph-name="M" unicode="M" horiz-adv-x="758" 
d="M581 391l-190 -198h-23l-191 198v-391h-99v600h28l273 -280l275 280h26v-600h-99v391z" />
    <glyph glyph-name="N" unicode="N" horiz-adv-x="696" 
d="M618 0h-26l-415 402v-402h-99v600h26l415 -396v396h99v-600z" />
    <glyph glyph-name="O" unicode="O" horiz-adv-x="705" 
d="M352 -14q-72 0 -130.5 24.5t-99 67t-62.5 99.5t-22 122q0 66 22 123t62.5 99.5t99 67t130.5 24.5q73 0 131 -24.5t99 -67t63 -99.5t22 -123q0 -65 -22 -122t-63 -99.5t-99 -67t-131 -24.5zM352 82q48 0 87.5 16.5t67 46t43 69t15.5 85.5t-15.5 86.5t-43 69.5t-67 46
t-87.5 17t-87 -17t-66.5 -46t-43 -69.5t-15.5 -86.5t15.5 -85.5t43 -69t66.5 -46t87 -16.5z" />
    <glyph glyph-name="P" unicode="P" horiz-adv-x="607" 
d="M78 600h261q113 0 177.5 -52.5t64.5 -150.5q0 -52 -18 -91.5t-50.5 -66.5t-78.5 -40.5t-101 -13.5h-156v-185h-99v600zM480 393q0 60 -39.5 89.5t-105.5 29.5h-158v-240h158q67 0 106 28.5t39 92.5z" />
    <glyph glyph-name="Q" unicode="Q" horiz-adv-x="705" 
d="M352 -14q-72 0 -130.5 24.5t-99 67t-62.5 99.5t-22 122q0 66 22 123t62.5 99.5t99 67t130.5 24.5q73 0 131 -24.5t99 -67t63 -99.5t22 -123q0 -79 -32 -145t-90 -109l59 -86v-13h-107l-37 56q-25 -8 -52 -12t-56 -4zM319 228h102l68 -100q36 29 56 73t20 98
q0 46 -15.5 86.5t-43 69.5t-67 46t-87.5 17t-87 -17t-66.5 -46t-43 -69.5t-15.5 -86.5t15.5 -85.5t43 -69t66.5 -46t87 -16.5q14 0 26.5 1.5t24.5 3.5l-84 128v13z" />
    <glyph glyph-name="R" unicode="R" horiz-adv-x="636" 
d="M78 600h260q114 0 178.5 -52.5t64.5 -150.5q0 -71 -34 -117t-91 -69v-6l149 -191v-14h-110l-147 190h-171v-190h-99v600zM479 393q0 60 -39 89.5t-105 29.5h-158v-236h164q63 0 100.5 28.5t37.5 88.5z" />
    <glyph glyph-name="S" unicode="S" horiz-adv-x="541" 
d="M91 136q22 -17 49 -29q23 -11 56 -20t74 -9q67 0 96.5 23.5t29.5 59.5q0 17 -6.5 30.5t-23 25.5t-45 23t-71.5 23q-53 15 -92 31.5t-65 37.5t-38.5 48t-12.5 62q0 79 59 125t170 46q58 0 100 -9.5t69 -20.5q32 -13 52 -30l-54 -81q-18 13 -44 24q-22 9 -53 17t-70 8
q-57 0 -89 -19.5t-32 -55.5q0 -15 7 -27t24 -22.5t44.5 -20.5t68.5 -21q57 -15 97 -33.5t65.5 -41t37.5 -50t12 -62.5q0 -38 -14 -71.5t-42.5 -58t-72.5 -38.5t-105 -14q-60 0 -104 11.5t-73 25.5q-34 17 -58 38z" />
    <glyph glyph-name="T" unicode="T" horiz-adv-x="531" 
d="M14 600h503v-88h-202v-512h-99v512h-202v88z" />
    <glyph glyph-name="U" unicode="U" 
d="M331 -14q-61 0 -109.5 20t-82.5 55.5t-52 84.5t-18 108v346h99v-346q0 -36 10 -68t30.5 -55t51 -36.5t71.5 -13.5t71 13.5t50 36.5t30 55t10 68v346h99v-346q0 -59 -17.5 -108t-50.5 -84.5t-81.5 -55.5t-110.5 -20z" />
    <glyph glyph-name="V" unicode="V" horiz-adv-x="614" 
d="M309 179l58 130l140 291h111l-302 -600h-20l-301 600h111l142 -291l55 -130h6z" />
    <glyph glyph-name="W" unicode="W" horiz-adv-x="821" 
d="M390 600h42l111 -347l19 -60h9l19 66l120 341h106l-229 -600h-48l-111 345l-15 60h-5l-16 -60l-113 -345h-46l-229 600h105l122 -341l18 -66h8l20 60z" />
    <glyph glyph-name="X" unicode="X" horiz-adv-x="572" 
d="M360 308l201 -308h-120l-131 206l-24 47l-24 -47l-130 -206h-119l199 308l-193 292h119l127 -196l22 -47l22 47l126 196h119z" />
    <glyph glyph-name="Y" unicode="Y" horiz-adv-x="555" 
d="M442 600h114l-229 -371v-229h-99v229l-228 371h115l142 -235l16 -35h11l17 35z" />
    <glyph glyph-name="Z" unicode="Z" horiz-adv-x="548" 
d="M28 26l332 486h-320v88h479v-26l-324 -486h319v-88h-486v26z" />
    <glyph glyph-name="bracketleft" unicode="[" horiz-adv-x="331" 
d="M70 674h239v-80h-146v-672h146v-80h-239v832z" />
    <glyph glyph-name="backslash" unicode="\" horiz-adv-x="372" 
d="M26 703h98l221 -879h-98z" />
    <glyph glyph-name="bracketright" unicode="]" horiz-adv-x="331" 
d="M22 -78h146v672h-146v80h239v-832h-239v80z" />
    <glyph glyph-name="underscore" unicode="_" horiz-adv-x="498" 
d="M41 -20h413v-80h-413v80z" />
    <glyph glyph-name="grave" unicode="`" horiz-adv-x="254" 
d="M46 561v16h115l38 -142v-16h-63z" />
    <glyph glyph-name="a" unicode="a" horiz-adv-x="424" 
d="M26 101q0 48 38 77.5t113 29.5q46 0 69.5 -10t31.5 -16h5v16q0 38 -24 57.5t-77 19.5q-22 0 -39.5 -4t-30.5 -9q-15 -6 -27 -13l-31 72q16 9 38 16q19 6 46 11.5t62 5.5q94 0 135.5 -45.5t41.5 -118.5v-190h-70l-10 38h-5q-4 -6 -12 -13.5t-22.5 -15t-36 -12.5t-52.5 -5
q-70 0 -106.5 31.5t-36.5 77.5zM121 106q0 -20 18 -34.5t56 -14.5q39 0 62.5 17t23.5 34q0 20 -23.5 33.5t-62.5 13.5q-36 0 -55 -13t-19 -36z" />
    <glyph glyph-name="b" unicode="b" horiz-adv-x="467" 
d="M53 668h98v-361h4q8 12 23 23q13 9 34.5 16.5t53.5 7.5q36 0 67 -13t54 -37t36 -57.5t13 -73.5q0 -42 -13.5 -75.5t-36.5 -57t-54.5 -36t-68.5 -12.5q-36 0 -60.5 9t-38.5 20q-17 12 -26 29h-4l-15 -50h-66v668zM146 173q0 -46 27 -73t69 -27t68.5 28t26.5 72
q0 45 -26.5 72.5t-68.5 27.5t-69 -26.5t-27 -73.5z" />
    <glyph glyph-name="c" unicode="c" horiz-adv-x="361" 
d="M226 -8q-44 0 -80 13.5t-61.5 37.5t-40 57t-14.5 72t14.5 72.5t40 58t61.5 38t80 13.5q28 0 49.5 -5t35.5 -10q17 -6 29 -14l-29 -73q-10 6 -21 10q-10 4 -24.5 7.5t-31.5 3.5q-45 0 -75 -27t-30 -74q0 -45 30 -72t75 -27q17 0 31.5 3t24.5 7q11 4 21 11l26 -72
q-11 -9 -27 -15q-14 -6 -35 -10.5t-49 -4.5z" />
    <glyph glyph-name="d" unicode="d" horiz-adv-x="467" 
d="M316 310v358h98v-668h-66l-15 48h-4q-10 -16 -27 -28q-14 -11 -38 -19.5t-59 -8.5q-37 0 -69 12.5t-55 36t-36.5 57t-13.5 75.5q0 40 13 73.5t36 57.5t54 37t67 13q32 0 53 -7t34 -15q15 -10 24 -22h4zM321 173q0 47 -27 73.5t-69 26.5t-68.5 -27.5t-26.5 -72.5
q0 -44 26.5 -72t68.5 -28t69 27t27 73z" />
    <glyph glyph-name="e" unicode="e" horiz-adv-x="415" 
d="M362 30q-14 -11 -33 -20q-17 -8 -41.5 -14t-57.5 -6q-46 0 -83 14t-63 38.5t-40 57.5t-14 72t13.5 72.5t38 58t59 38t75.5 13.5q40 0 72.5 -13t54.5 -36.5t34 -55.5t12 -71v-24h-263q6 -45 36 -66t72 -21q23 0 41 4t30 9q14 5 25 13zM214 281q-33 0 -55.5 -18.5
t-30.5 -53.5h168q-5 31 -26 51.5t-56 20.5z" />
    <glyph glyph-name="f" unicode="f" horiz-adv-x="326" 
d="M193 269v-269h-98v269h-77v77h77v142q0 91 42 134.5t114 43.5q38 0 59 -8.5t23 -9.5l-25 -85l-14 6q-6 2 -13.5 4t-15.5 2q-37 0 -54.5 -21t-17.5 -66v-142h116v-77h-116z" />
    <glyph glyph-name="g" unicode="g" horiz-adv-x="410" 
d="M212 -237q-97 0 -145 36.5t-48 89.5q0 30 14.5 54.5t48.5 39.5v6q-31 14 -43.5 33t-12.5 43t12 44t45 36q-25 33 -25 75q0 30 11 54.5t31 42t46.5 27t58.5 9.5q17 0 47.5 -1.5t61.5 -3.5q36 -2 77 -4v-68h-57v-5q5 -4 9 -12q3 -7 6 -17.5t3 -26.5q0 -24 -10 -46.5
t-29 -39.5t-46.5 -27t-61.5 -10q-39 0 -70 14q-14 -7 -19 -14t-5 -17q0 -8 4 -15t15.5 -12t31 -8t50.5 -3q104 0 149.5 -35.5t45.5 -97.5q0 -30 -12.5 -55.5t-37 -44.5t-61 -30t-84.5 -11zM212 -38q-53 0 -76 -19.5t-23 -44.5t23 -44t76 -19t76 18.5t23 44.5t-23 45t-76 19z
M205 282q-32 0 -49.5 -17.5t-17.5 -43.5t17.5 -43t49.5 -17t49.5 17t17.5 43t-17.5 43.5t-49.5 17.5z" />
    <glyph glyph-name="h" unicode="h" horiz-adv-x="460" 
d="M53 668h98v-354h3q14 15 38.5 27.5t69.5 12.5q69 0 109.5 -41t40.5 -112v-201h-98v188q0 38 -20.5 61.5t-58.5 23.5q-20 0 -35.5 -6.5t-26.5 -16.5t-16.5 -23t-5.5 -26v-201h-98v668z" />
    <glyph glyph-name="i" unicode="i" horiz-adv-x="205" 
d="M103 470q-25 0 -41.5 16.5t-16.5 41.5t16.5 42t41.5 17t42 -17t17 -42t-17 -41.5t-42 -16.5zM54 346h98v-346h-98v346z" />
    <glyph glyph-name="j" unicode="j" horiz-adv-x="203" 
d="M-13 -111q4 -2 9 -4q10 -4 21 -4q35 0 35 43v422h99v-426q0 -57 -25 -89t-85 -32q-17 0 -29.5 2.5t-21.5 5.5q-11 4 -18 9zM101 470q-24 0 -41 16.5t-17 41.5t17 42t41 17q25 0 42 -17t17 -42t-17 -41.5t-42 -16.5z" />
    <glyph glyph-name="k" unicode="k" horiz-adv-x="412" 
d="M388 346l-141 -168l161 -178h-125l-130 147h-3v-147h-98v668h98v-473h2l125 151h111z" />
    <glyph glyph-name="l" unicode="l" horiz-adv-x="205" 
d="M54 668h98v-668h-98v668z" />
    <glyph glyph-name="m" unicode="m" horiz-adv-x="720" 
d="M53 346h63l13 -48h5q20 27 49 41.5t74 14.5t77 -15.5t52 -44.5h5q16 26 47.5 43t80.5 17q72 0 112.5 -41.5t40.5 -111.5v-201h-98v187q0 38 -20 62t-59 24q-40 0 -61.5 -23.5t-21.5 -50.5v-199h-98v195q0 34 -20.5 56t-59.5 22q-20 0 -35.5 -6.5t-26 -17t-16 -24
t-5.5 -26.5v-199h-98v346z" />
    <glyph glyph-name="n" unicode="n" horiz-adv-x="459" 
d="M53 346h63l13 -48h5q18 26 47.5 41t75.5 15q72 0 113.5 -41.5t41.5 -111.5v-201h-98v187q0 38 -20.5 62t-59.5 24q-20 0 -35.5 -6.5t-26 -16.5t-16 -23t-5.5 -26v-201h-98v346z" />
    <glyph glyph-name="o" unicode="o" horiz-adv-x="445" 
d="M416 171q0 -41 -15.5 -74t-41.5 -56.5t-61 -36t-75 -12.5t-75 12.5t-61.5 36t-41.5 56.5t-15 74q0 42 15 75.5t41.5 57.5t61.5 37t75 13t75 -13t61 -37t41.5 -57.5t15.5 -75.5zM223 70q42 0 69.5 27.5t27.5 74.5q0 48 -27.5 76t-69.5 28t-69.5 -28t-27.5 -76
q0 -47 27.5 -74.5t69.5 -27.5z" />
    <glyph glyph-name="p" unicode="p" horiz-adv-x="467" 
d="M151 36v-228h-98v538h64l15 -48h5q10 16 28 28q15 11 39 19.5t59 8.5q37 0 68.5 -12.5t54.5 -36t36.5 -57t13.5 -75.5q0 -41 -13 -74t-36 -57t-54 -37t-67 -13q-32 0 -53.5 7t-34.5 15q-15 10 -23 22h-4zM146 173q0 -47 27 -73.5t69 -26.5t68.5 27.5t26.5 72.5
q0 44 -26.5 72t-68.5 28t-69 -27t-27 -73z" />
    <glyph glyph-name="q" unicode="q" horiz-adv-x="467" 
d="M414 -192h-98v231h-4q-8 -13 -23 -24q-13 -9 -34.5 -16t-53.5 -7q-36 0 -67 13t-54 37t-36 57t-13 74q0 42 13.5 75.5t36.5 57t55 36t69 12.5q36 0 60 -9.5t38 -20.5q17 -13 27 -30h5l14 52h65v-538zM321 173q0 46 -27 73t-69 27t-68.5 -28t-26.5 -72q0 -45 26.5 -72.5
t68.5 -27.5t69 26.5t27 73.5z" />
    <glyph glyph-name="r" unicode="r" horiz-adv-x="308" 
d="M272 250q-5 3 -12 6q-6 2 -14.5 4t-19.5 2q-29 0 -52 -20.5t-23 -52.5v-189h-98v346h63l13 -48h4q14 20 38.5 35.5t62.5 15.5q19 0 32.5 -3.5t22.5 -7.5q11 -4 18 -10z" />
    <glyph glyph-name="s" unicode="s" horiz-adv-x="380" 
d="M60 98q17 -10 36 -17q17 -7 38 -12t46 -5q32 0 49 9.5t17 26.5q0 15 -15.5 23t-39.5 14.5t-51 13t-51 18t-39.5 30t-15.5 49.5q0 45 36.5 75.5t116.5 30.5q38 0 66.5 -5t48.5 -10q23 -6 39 -14l-31 -72q-12 8 -29 14q-14 5 -35 9.5t-48 4.5q-29 0 -45.5 -7.5t-16.5 -25.5
q0 -14 16 -22t39.5 -14t51.5 -12.5t51.5 -18t39.5 -31t16 -50.5q0 -45 -38.5 -76.5t-123.5 -31.5q-41 0 -70.5 5.5t-49.5 13.5q-23 9 -38 20z" />
    <glyph glyph-name="t" unicode="t" horiz-adv-x="329" 
d="M81 346v104h98v-104h121v-78h-121v-124q0 -36 15 -52.5t44 -16.5q10 0 18 2t14 4q7 3 13 7l32 -67q-10 -9 -23 -15q-11 -5 -28.5 -9.5t-40.5 -4.5q-67 0 -104.5 38t-37.5 110v128h-65v78h65z" />
    <glyph glyph-name="u" unicode="u" horiz-adv-x="457" 
d="M405 0h-66l-17 47h-4q-4 -8 -12.5 -17.5t-23 -17.5t-34.5 -14t-48 -6q-72 0 -112.5 41.5t-40.5 111.5v201h98v-187q0 -38 19.5 -62t58.5 -24q40 0 62 22.5t22 48.5v202h98v-346z" />
    <glyph glyph-name="v" unicode="v" horiz-adv-x="415" 
d="M242 0h-69l-168 346h108l85 -201q7 -16 7 -28h5q0 12 7 28l85 201h108z" />
    <glyph glyph-name="w" unicode="w" horiz-adv-x="595" 
d="M441 0h-68l-67 192q-6 16 -6 33h-5q0 -14 -7 -33l-66 -192h-68l-145 346h105l68 -201q2 -7 4.5 -14t2.5 -14h7q0 7 2 14l4 14l61 201h71l61 -201q2 -8 4 -14.5t2 -13.5h7q0 7 2 13.5t4 14.5l70 201h102z" />
    <glyph glyph-name="x" unicode="x" horiz-adv-x="410" 
d="M147 176l-131 170h110l78 -109h2l78 109h110l-131 -170l137 -176h-111l-83 117h-2l-84 -117h-110z" />
    <glyph glyph-name="y" unicode="y" horiz-adv-x="411" 
d="M156 -192h-104l109 220l-153 318h107l83 -194q3 -7 5.5 -15.5t3.5 -19.5h5q1 11 4 19.5t6 15.5l82 194h100z" />
    <glyph glyph-name="z" unicode="z" horiz-adv-x="387" 
d="M32 0v43l185 224h-184v79h321v-38l-185 -229h185v-79h-322z" />
    <glyph glyph-name="braceleft" unicode="{" horiz-adv-x="279" 
d="M32 296q26 0 41.5 18t15.5 56v201q0 60 35 94t109 39l14 -82q-14 -2 -24.5 -5.5t-17 -9.5t-9.5 -16.5t-3 -26.5v-207q0 -77 -59 -96v-9q29 -8 44 -33t15 -61v-208q0 -32 12.5 -42.5t41.5 -15.5l-14 -81q-74 4 -109 38t-35 94v202q0 38 -15.5 56t-41.5 18h-18v77h18z" />
    <glyph glyph-name="bar" unicode="|" horiz-adv-x="228" 
d="M159 -152h-90v825h90v-825z" />
    <glyph glyph-name="braceright" unicode="}" horiz-adv-x="279" 
d="M247 219q-27 0 -42.5 -18t-15.5 -56v-202q0 -60 -34.5 -94t-109.5 -38l-13 81q29 5 41 15.5t12 42.5v208q0 36 15.5 61t44.5 33v9q-29 9 -44.5 33.5t-15.5 62.5v207q0 32 -12.5 42.5t-40.5 15.5l13 82q75 -5 109.5 -39t34.5 -94v-201q0 -38 15.5 -56t42.5 -18h18v-77h-18
z" />
    <glyph glyph-name="asciitilde" unicode="~" horiz-adv-x="456" 
d="M300 320q18 0 31.5 3t23.5 8q11 4 20 11l30 -61q-10 -11 -25 -19q-13 -7 -32.5 -12.5t-45.5 -5.5q-20 0 -37.5 4t-35 9t-35.5 9t-39 4q-18 0 -32 -3.5t-24 -8.5q-11 -5 -19 -11l-30 61q10 10 25 18q13 7 32.5 13t45.5 6q20 0 37.5 -4t34.5 -8.5t35 -8.5t40 -4z" />
    <glyph glyph-name="exclamdown" unicode="&#xa1;" horiz-adv-x="246" 
d="M180 0h-116v39l25 376h66l25 -376v-39zM60 545q0 26 18.5 44.5t44.5 18.5t44.5 -18.5t18.5 -44.5t-18.5 -44.5t-44.5 -18.5t-44.5 18.5t-18.5 44.5z" />
    <glyph glyph-name="cent" unicode="&#xa2;" horiz-adv-x="408" 
d="M196 -4q-70 12 -112 60t-42 116q0 69 42 117t111 61v95h68v-92q23 -2 42 -7t32 -10q15 -6 27 -13l-34 -76q-11 7 -24 13q-11 5 -27 9t-33 4q-45 0 -75 -27t-30 -74q0 -45 30 -72t75 -27q17 0 33 3.5t27 8.5q13 5 24 13l34 -75q-12 -7 -27 -13q-13 -5 -31.5 -9.5
t-41.5 -6.5v-92h-68v94z" />
    <glyph glyph-name="sterling" unicode="&#xa3;" horiz-adv-x="519" 
d="M465 2h-401v87q16 7 29 20q11 11 20.5 30.5t9.5 50.5q0 11 -2.5 22.5t-6.5 23.5h-71v72h43q-7 21 -12 44t-5 50q0 37 14.5 74.5t43.5 66.5t73.5 47.5t104.5 18.5q47 0 80 -10.5t54 -23.5q25 -15 40 -33l-55 -73q-11 12 -28 22q-14 8 -35.5 15.5t-50.5 7.5
q-34 0 -58.5 -10.5t-40.5 -27.5t-24 -38.5t-8 -43.5q0 -26 5 -46.5t12 -39.5h206v-72h-180q6 -21 6 -43q0 -36 -11.5 -61.5t-27.5 -42.5h276v-87z" />
    <glyph glyph-name="currency" unicode="&#xa4;" horiz-adv-x="578" 
d="M59 129l57 57q-33 50 -33 111q0 62 33 112l-57 58l64 63l54 -62q50 33 110 33q31 0 59.5 -9t52.5 -25l56 63l64 -63l-60 -61q15 -23 23.5 -51t8.5 -58t-8.5 -57.5t-23.5 -50.5l60 -60l-64 -63l-55 62q-51 -34 -113 -34q-31 0 -59 8.5t-52 23.5l-53 -60zM175 297
q0 -23 9 -43.5t24 -36t35.5 -24.5t43.5 -9q24 0 44.5 9t35.5 24.5t24 36t9 43.5q0 24 -9 44.5t-24 36t-35.5 24.5t-44.5 9q-23 0 -43.5 -9t-35.5 -24.5t-24 -36t-9 -44.5z" />
    <glyph glyph-name="yen" unicode="&#xa5;" horiz-adv-x="615" 
d="M472 600h114l-186 -301h125v-72h-168v-68h168v-71h-168v-88h-99v88h-169v71h169v68h-169v72h126l-185 301h115l142 -235l16 -35h11l17 35z" />
    <glyph glyph-name="brokenbar" unicode="&#xa6;" horiz-adv-x="229" 
d="M69 -152v825h91v-825h-91z" />
    <glyph glyph-name="section" unicode="&#xa7;" horiz-adv-x="539" 
d="M90 -47q23 -18 50 -32q23 -12 55.5 -21.5t70.5 -9.5q64 0 91 25t27 57q0 38 -32 60.5t-98 46.5q-36 13 -67 26.5t-54.5 31.5t-37 42.5t-13.5 58.5q0 36 12.5 56.5t23.5 29.5q-29 20 -46.5 48t-17.5 67q0 38 13.5 70t41 55t69 36t98.5 13q56 0 96 -10t66 -22
q30 -14 50 -31l-54 -81q-18 15 -42 27q-20 10 -49.5 18.5t-66.5 8.5q-58 0 -83.5 -22.5t-25.5 -54.5q0 -35 29 -58t79 -39q37 -12 72.5 -26.5t63 -33.5t44 -44.5t16.5 -60.5q0 -40 -13 -63.5t-23 -34.5q29 -22 46.5 -50t17.5 -64q0 -34 -13.5 -65.5t-41.5 -55.5t-71.5 -38
t-104.5 -14q-59 0 -102.5 12t-72.5 27q-34 17 -58 39zM241 271q-11 3 -21 6t-20 7q-5 -2 -13 -10.5t-8 -29.5q0 -28 28.5 -48t80.5 -39q35 -12 65 -25q4 4 11 15t7 30q0 32 -35 53t-95 41z" />
    <glyph glyph-name="dieresis" unicode="&#xa8;" horiz-adv-x="403" 
d="M58 483q0 21 15.5 37t36.5 16t37 -16t16 -37t-16 -36.5t-37 -15.5t-36.5 15.5t-15.5 36.5zM242 483q0 21 15.5 37t36.5 16t37 -16t16 -37t-16 -36.5t-37 -15.5t-36.5 15.5t-15.5 36.5z" />
    <glyph glyph-name="copyright" unicode="&#xa9;" horiz-adv-x="716" 
d="M357 608q74 0 133 -24.5t100 -66.5t62.5 -98t21.5 -120q0 -63 -21.5 -119t-62.5 -98t-100 -66.5t-133 -24.5t-132.5 24.5t-99 66.5t-62.5 98t-22 119q0 64 22 120t62.5 98t99 66.5t132.5 24.5zM357 553q-60 0 -108 -20t-81 -54.5t-51 -81t-18 -98.5t18 -97.5t51 -80
t81 -54.5t108 -20q61 0 109 20t81.5 54.5t51.5 80t18 97.5t-18 98.5t-51.5 81t-81.5 54.5t-109 20zM435 376q-7 6 -18 10q-9 4 -21.5 7.5t-29.5 3.5q-45 0 -71.5 -27.5t-26.5 -69.5t26.5 -69t71.5 -27q17 0 29.5 3t21.5 7q11 4 18 11l34 -46q-11 -11 -26 -19
q-14 -7 -33.5 -12.5t-47.5 -5.5q-38 0 -68 12.5t-51 34t-32 50t-11 61.5t11 62t32 50t51 33.5t68 12.5q28 0 48.5 -5.5t33.5 -12.5q15 -8 25 -18z" />
    <glyph glyph-name="ordfeminine" unicode="&#xaa;" horiz-adv-x="400" 
d="M31 367q0 48 38 75t101 27q44 0 66.5 -9t33.5 -18v18q0 43 -22 64.5t-75 21.5q-17 0 -32.5 -3t-28 -7t-21.5 -7.5t-12 -4.5l-24 64q20 7 42 13q19 5 42.5 9t48.5 4q88 0 125.5 -43t37.5 -114v-183h-60l-12 33h-5q-8 -12 -33.5 -26.5t-80.5 -14.5q-56 0 -92.5 27.5
t-36.5 73.5zM110 371q0 -23 19 -36.5t55 -13.5q38 0 62 15.5t24 36.5q0 23 -23.5 36.5t-58.5 13.5q-39 0 -58.5 -14t-19.5 -38z" />
    <glyph glyph-name="guillemotleft" unicode="&#xab;" horiz-adv-x="438" 
d="M32 181l106 155h83v-8l-103 -152v-7l103 -154v-8h-83l-106 155v19zM218 181l106 155h82v-8l-103 -152v-7l103 -154v-8h-82l-106 155v19z" />
    <glyph glyph-name="registered" unicode="&#xae;" horiz-adv-x="566" 
d="M522 380q0 -48 -16.5 -90.5t-47.5 -75t-75.5 -51t-100.5 -18.5t-99.5 19t-74.5 51t-47 74.5t-16 90.5t16 90.5t47 74.5t74.5 50.5t99.5 18.5t100.5 -18.5t75.5 -50.5t47.5 -74.5t16.5 -90.5zM462 380q0 39 -13 71.5t-37 56t-57 37t-73 13.5q-39 0 -71.5 -12.5
t-56.5 -35.5t-37 -56t-13 -74q0 -39 13 -71.5t37 -56t56.5 -37t71.5 -13.5q40 0 73 13t57 37t37 56.5t13 71.5zM289 485q40 0 65.5 -20t25.5 -55q0 -23 -10.5 -38.5t-27.5 -24.5l40 -54v-10h-48l-38 52h-56v-52h-46v202h95zM240 443v-67h47q20 0 32 8t12 25t-11.5 25.5
t-30.5 8.5h-49z" />
    <glyph glyph-name="macron" unicode="&#xaf;" horiz-adv-x="426" 
d="M83 502h272v-60h-272v60z" />
    <glyph glyph-name="degree" unicode="&#xb0;" horiz-adv-x="297" 
d="M148 672q27 0 48.5 -8.5t37 -23t24 -34.5t8.5 -42q0 -45 -32 -76t-86 -31q-53 0 -85 31t-32 76q0 22 8.5 42t24 34.5t37 23t47.5 8.5zM148 621q-28 0 -44 -16.5t-16 -40.5q0 -23 16 -39t44 -16q29 0 45 16t16 39q0 24 -16 40.5t-45 16.5z" />
    <glyph glyph-name="plusminus" unicode="&#xb1;" horiz-adv-x="538" 
d="M230 178v160h-170v80h170v166h82v-166h167v-80h-167v-160h-82zM479 31h-419v81h419v-81z" />
    <glyph glyph-name="acute" unicode="&#xb4;" horiz-adv-x="247" 
d="M107 419h-62v16l38 142h114v-16z" />
    <glyph glyph-name="paragraph" unicode="&#xb6;" horiz-adv-x="502" 
d="M313 108h-46q-53 0 -97 13t-75.5 38.5t-48.5 63t-17 87.5q0 94 62 144t171 50h150v-659h-99v263z" />
    <glyph glyph-name="periodcentered" unicode="&#xb7;" horiz-adv-x="178" 
d="M25 358q0 27 18.5 45.5t44.5 18.5t44.5 -18.5t18.5 -45.5q0 -26 -18.5 -44t-44.5 -18t-44.5 18t-18.5 44z" />
    <glyph glyph-name="cedilla" unicode="&#xb8;" horiz-adv-x="216" 
d="M62 -48l25 50h49l-14 -32q28 0 47 -16t19 -48t-21.5 -52.5t-63.5 -20.5q-21 0 -36.5 5t-25.5 11q-11 7 -19 16l21 36q6 -7 15 -11q8 -5 18.5 -8t24.5 -3q38 0 38 29q0 14 -10 21.5t-26 7.5q-6 0 -10 -1t-7 -2l-6 -3z" />
    <glyph glyph-name="ordmasculine" unicode="&#xba;" horiz-adv-x="411" 
d="M206 613q37 0 69 -12t55.5 -35t36.5 -55.5t13 -72.5q0 -39 -13 -70t-36.5 -53.5t-55.5 -34.5t-69 -12q-38 0 -70 12t-55.5 34.5t-36.5 53.5t-13 70q0 40 13 72.5t36.5 55.5t55.5 35t70 12zM206 544q-44 0 -69.5 -28.5t-25.5 -76.5q0 -45 25.5 -73.5t69.5 -28.5t69 28.5
t25 73.5q0 48 -25 76.5t-69 28.5z" />
    <glyph glyph-name="guillemotright" unicode="&#xbb;" horiz-adv-x="438" 
d="M221 162l-106 -155h-83v8l103 154v7l-103 152v8h83l106 -155v-19zM406 162l-106 -155h-83v8l103 154v7l-103 152v8h83l106 -155v-19z" />
    <glyph glyph-name="onequarter" unicode="&#xbc;" horiz-adv-x="640" 
d="M318 122l187 204h50v-191h52v-55h-52v-80h-64v80h-173v42zM47 41l469 564l49 -40l-469 -564zM34 600h138v-326h-67v267h-71v59zM426 160q-8 -10 -16 -18l-10 -10l40 3h51v100h-1z" />
    <glyph glyph-name="onehalf" unicode="&#xbd;" horiz-adv-x="719" 
d="M50 41l469 564l49 -40l-470 -564zM425 19l140 142q15 15 23.5 29t8.5 30q0 22 -14.5 36t-45.5 14q-16 0 -30.5 -4.5t-25 -10.5t-17.5 -11.5t-8 -6.5l-35 52q15 12 33 23q16 8 38 15.5t51 7.5q34 0 58 -8.5t39 -23t22 -34t7 -40.5q0 -26 -12 -48.5t-32 -43.5l-78 -79h139
v-58h-261v19zM37 600h137v-326h-67v267h-70v59z" />
    <glyph glyph-name="threequarters" unicode="&#xbe;" horiz-adv-x="734" 
d="M410 119l188 204h50v-191h52v-55h-52v-77h-64v77h-174v42zM146 41l469 564l50 -40l-470 -564zM50 600h238v-17l-68 -111q83 -14 83 -96q0 -22 -8.5 -42t-25.5 -35t-43 -24t-61 -9q-28 0 -51 6.5t-39.5 14.5t-26.5 15.5t-12 9.5l35 50q11 -10 26 -17q12 -6 29 -11t37 -5
q37 0 53.5 14t16.5 35q0 22 -15 34.5t-47 12.5h-41v18l61 98h-141v59zM519 158q-9 -11 -17.5 -19.5l-9.5 -9.5l40 3h52v73l1 27h-2z" />
    <glyph glyph-name="questiondown" unicode="&#xbf;" horiz-adv-x="387" 
d="M355 24q-16 -9 -39 -16q-20 -6 -48 -11t-63 -5q-39 0 -70 11t-52 30t-32 45t-11 55q0 35 10 60t25 45t33 36.5t33.5 34t27 38t13.5 48.5l2 29h67v-38q0 -43 -17.5 -72t-38.5 -53t-38.5 -49t-17.5 -59q0 -36 24 -57.5t63 -21.5q22 0 40 4t30 9q14 6 25 14zM276 552
q0 -26 -17.5 -43t-43.5 -17t-43.5 17t-17.5 43t17.5 43.5t43.5 17.5t43.5 -17.5t17.5 -43.5z" />
    <glyph glyph-name="Agrave" unicode="&#xc0;" horiz-adv-x="614" 
d="M297 600h19l304 -600h-113l-45 91h-311l-44 -91h-112zM310 417h-6l-108 -235l-6 -10h233l-6 10zM183 780v16h115l38 -142v-16h-63z" />
    <glyph glyph-name="Aacute" unicode="&#xc1;" horiz-adv-x="614" 
d="M297 600h19l304 -600h-113l-45 91h-311l-44 -91h-112zM310 417h-6l-108 -235l-6 -10h233l-6 10zM338 638h-62v16l38 142h114v-16z" />
    <glyph glyph-name="Acircumflex" unicode="&#xc2;" horiz-adv-x="614" 
d="M306 730l-85 -92h-63v16l95 142h104l95 -142v-16h-63zM297 600h19l304 -600h-113l-45 91h-311l-44 -91h-112zM310 417h-6l-108 -235l-6 -10h233l-6 10z" />
    <glyph glyph-name="Atilde" unicode="&#xc3;" horiz-adv-x="614" 
d="M297 600h19l304 -600h-113l-45 91h-311l-44 -91h-112zM310 417h-6l-108 -235l-6 -10h233l-6 10zM376 640q-21 0 -38.5 6.5t-32.5 15t-29 15t-27 6.5q-17 0 -25 -8.5t-10 -22.5l-2 -14l-68 6l3 29q4 36 26 60.5t64 24.5q21 0 38.5 -6.5t32.5 -15t28 -15t27 -6.5
q18 0 25.5 8.5t10.5 22.5l3 14l69 -6l-4 -29q-7 -36 -28.5 -60.5t-62.5 -24.5z" />
    <glyph glyph-name="Adieresis" unicode="&#xc4;" horiz-adv-x="614" 
d="M160 725q0 21 15.5 37t36.5 16t37 -16t16 -37t-16 -36.5t-37 -15.5t-36.5 15.5t-15.5 36.5zM344 725q0 21 15.5 37t36.5 16t37 -16t16 -37t-16 -36.5t-37 -15.5t-36.5 15.5t-15.5 36.5zM297 600h19l304 -600h-113l-45 91h-311l-44 -91h-112zM310 417h-6l-108 -235l-6 -10
h233l-6 10z" />
    <glyph glyph-name="Aring" unicode="&#xc5;" horiz-adv-x="615" 
d="M278 562q-33 9 -53.5 34.5t-20.5 60.5q0 42 29 70t73 28q43 0 72 -28t29 -70q0 -35 -20.5 -60.5t-52.5 -33.5l286 -563h-113l-45 91h-311l-44 -91h-112zM310 417h-6l-108 -235l-6 -10h233l-6 10zM345 657q0 18 -10.5 29t-28.5 11q-17 0 -28 -11t-11 -29q0 -17 11 -28
t28 -11q18 0 28.5 11t10.5 28z" />
    <glyph glyph-name="AE" unicode="&#xc6;" horiz-adv-x="917" 
d="M411 600h469v-88h-356v-174h302v-84h-302v-166h356v-88h-455v91h-257l-61 -91h-123zM222 172h203v277h-9z" />
    <glyph glyph-name="Ccedilla" unicode="&#xc7;" horiz-adv-x="586" 
d="M305 -48l17 36q-65 5 -117.5 31.5t-89.5 68t-57 95.5t-20 116q0 66 22.5 123t64 99.5t99.5 67t130 24.5q54 0 93.5 -12t65.5 -26q31 -17 52 -37l-57 -77q-19 16 -43 29q-20 11 -48 20t-61 9q-48 0 -88 -17t-68.5 -46.5t-44 -70t-15.5 -86.5t15.5 -86t44 -69t68.5 -46
t88 -17q36 0 64 8.5t48 19.5q23 12 40 29l57 -76q-19 -19 -47 -35q-24 -14 -60.5 -26t-85.5 -14l-7 -17q28 0 47 -16t19 -48t-21.5 -52.5t-63.5 -20.5q-21 0 -36.5 5t-25.5 11q-11 7 -19 16l21 36q6 -7 15 -11q8 -5 18.5 -8t24.5 -3q38 0 38 29q0 14 -10 21.5t-26 7.5
q-6 0 -10 -1t-7 -2l-6 -3z" />
    <glyph glyph-name="Egrave" unicode="&#xc8;" horiz-adv-x="570" 
d="M479 255h-302v-167h356v-88h-455v600h455v-88h-356v-173h302v-84zM198 779v16h115l38 -142v-16h-63z" />
    <glyph glyph-name="Eacute" unicode="&#xc9;" horiz-adv-x="570" 
d="M331 638h-62v16l38 142h114v-16zM479 255h-302v-167h356v-88h-455v600h455v-88h-356v-173h302v-84z" />
    <glyph glyph-name="Ecircumflex" unicode="&#xca;" horiz-adv-x="570" 
d="M310 730l-85 -92h-63v16l95 142h104l95 -142v-16h-63zM479 255h-302v-167h356v-88h-455v600h455v-88h-356v-173h302v-84z" />
    <glyph glyph-name="Edieresis" unicode="&#xcb;" horiz-adv-x="570" 
d="M164 705q0 21 15.5 37t36.5 16t37 -16t16 -37t-16 -36.5t-37 -15.5t-36.5 15.5t-15.5 36.5zM348 705q0 21 15.5 37t36.5 16t37 -16t16 -37t-16 -36.5t-37 -15.5t-36.5 15.5t-15.5 36.5zM479 255h-302v-167h356v-88h-455v600h455v-88h-356v-173h302v-84z" />
    <glyph glyph-name="Igrave" unicode="&#xcc;" horiz-adv-x="256" 
d="M177 0h-99v600h99v-600zM4 779v16h115l38 -142v-16h-63z" />
    <glyph glyph-name="Iacute" unicode="&#xcd;" horiz-adv-x="256" 
d="M177 0h-99v600h99v-600zM159 638h-62v16l38 142h114v-16z" />
    <glyph glyph-name="Icircumflex" unicode="&#xce;" horiz-adv-x="256" 
d="M129 730l-85 -92h-63v16l95 142h104l95 -142v-16h-63zM177 0h-99v600h99v-600z" />
    <glyph glyph-name="Idieresis" unicode="&#xcf;" horiz-adv-x="256" 
d="M-18 705q0 21 15.5 37t36.5 16t37 -16t16 -37t-16 -36.5t-37 -15.5t-36.5 15.5t-15.5 36.5zM166 705q0 21 15.5 37t36.5 16t37 -16t16 -37t-16 -36.5t-37 -15.5t-36.5 15.5t-15.5 36.5zM177 0h-99v600h99v-600z" />
    <glyph glyph-name="Eth" unicode="&#xd0;" horiz-adv-x="669" 
d="M13 331h73v269h224q73 0 132 -21.5t100.5 -61t64 -95t22.5 -122.5t-22.5 -122.5t-64 -95t-100.5 -61t-132 -21.5h-224v269h-73v62zM185 512v-181h113v-62h-113v-181h118q48 0 89 14t71.5 41t47.5 66.5t17 90.5t-17 90.5t-47.5 66.5t-71.5 41t-89 14h-118z" />
    <glyph glyph-name="Ntilde" unicode="&#xd1;" horiz-adv-x="696" 
d="M618 0h-26l-415 402v-402h-99v600h26l415 -396v396h99v-600zM416 655q-21 0 -38.5 6.5t-32.5 15t-29 15t-27 6.5q-17 0 -25 -8.5t-10 -22.5l-2 -14l-68 6l3 29q4 36 26 60.5t64 24.5q21 0 38.5 -6.5t32.5 -15t28 -15t27 -6.5q18 0 25.5 8.5t10.5 22.5l3 14l69 -6l-4 -29
q-7 -36 -28.5 -60.5t-62.5 -24.5z" />
    <glyph glyph-name="Ograve" unicode="&#xd2;" horiz-adv-x="705" 
d="M227 780v16h115l38 -142v-16h-63zM352 -14q-72 0 -130.5 24.5t-99 67t-62.5 99.5t-22 122q0 66 22 123t62.5 99.5t99 67t130.5 24.5q73 0 131 -24.5t99 -67t63 -99.5t22 -123q0 -65 -22 -122t-63 -99.5t-99 -67t-131 -24.5zM352 82q48 0 87.5 16.5t67 46t43 69t15.5 85.5
t-15.5 86.5t-43 69.5t-67 46t-87.5 17t-87 -17t-66.5 -46t-43 -69.5t-15.5 -86.5t15.5 -85.5t43 -69t66.5 -46t87 -16.5z" />
    <glyph glyph-name="Oacute" unicode="&#xd3;" horiz-adv-x="705" 
d="M381 638h-62v16l38 142h114v-16zM352 -14q-72 0 -130.5 24.5t-99 67t-62.5 99.5t-22 122q0 66 22 123t62.5 99.5t99 67t130.5 24.5q73 0 131 -24.5t99 -67t63 -99.5t22 -123q0 -65 -22 -122t-63 -99.5t-99 -67t-131 -24.5zM352 82q48 0 87.5 16.5t67 46t43 69t15.5 85.5
t-15.5 86.5t-43 69.5t-67 46t-87.5 17t-87 -17t-66.5 -46t-43 -69.5t-15.5 -86.5t15.5 -85.5t43 -69t66.5 -46t87 -16.5z" />
    <glyph glyph-name="Ocircumflex" unicode="&#xd4;" horiz-adv-x="705" 
d="M351 730l-85 -92h-63v16l95 142h104l95 -142v-16h-63zM352 -14q-72 0 -130.5 24.5t-99 67t-62.5 99.5t-22 122q0 66 22 123t62.5 99.5t99 67t130.5 24.5q73 0 131 -24.5t99 -67t63 -99.5t22 -123q0 -65 -22 -122t-63 -99.5t-99 -67t-131 -24.5zM352 82q48 0 87.5 16.5
t67 46t43 69t15.5 85.5t-15.5 86.5t-43 69.5t-67 46t-87.5 17t-87 -17t-66.5 -46t-43 -69.5t-15.5 -86.5t15.5 -85.5t43 -69t66.5 -46t87 -16.5z" />
    <glyph glyph-name="Otilde" unicode="&#xd5;" horiz-adv-x="705" 
d="M352 -14q-72 0 -130.5 24.5t-99 67t-62.5 99.5t-22 122q0 66 22 123t62.5 99.5t99 67t130.5 24.5q73 0 131 -24.5t99 -67t63 -99.5t22 -123q0 -65 -22 -122t-63 -99.5t-99 -67t-131 -24.5zM352 82q48 0 87.5 16.5t67 46t43 69t15.5 85.5t-15.5 86.5t-43 69.5t-67 46
t-87.5 17t-87 -17t-66.5 -46t-43 -69.5t-15.5 -86.5t15.5 -85.5t43 -69t66.5 -46t87 -16.5zM420 654q-21 0 -38.5 6.5t-32.5 15t-29 15t-27 6.5q-17 0 -25 -8.5t-10 -22.5l-2 -14l-68 6l3 29q4 36 26 60.5t64 24.5q21 0 38.5 -6.5t32.5 -15t28 -15t27 -6.5q18 0 25.5 8.5
t10.5 22.5l3 14l69 -6l-4 -29q-7 -36 -28.5 -60.5t-62.5 -24.5z" />
    <glyph glyph-name="Odieresis" unicode="&#xd6;" horiz-adv-x="705" 
d="M206 704q0 21 15.5 37t36.5 16t37 -16t16 -37t-16 -36.5t-37 -15.5t-36.5 15.5t-15.5 36.5zM390 704q0 21 15.5 37t36.5 16t37 -16t16 -37t-16 -36.5t-37 -15.5t-36.5 15.5t-15.5 36.5zM352 -14q-72 0 -130.5 24.5t-99 67t-62.5 99.5t-22 122q0 66 22 123t62.5 99.5
t99 67t130.5 24.5q73 0 131 -24.5t99 -67t63 -99.5t22 -123q0 -65 -22 -122t-63 -99.5t-99 -67t-131 -24.5zM352 82q48 0 87.5 16.5t67 46t43 69t15.5 85.5t-15.5 86.5t-43 69.5t-67 46t-87.5 17t-87 -17t-66.5 -46t-43 -69.5t-15.5 -86.5t15.5 -85.5t43 -69t66.5 -46
t87 -16.5z" />
    <glyph glyph-name="multiply" unicode="&#xd7;" horiz-adv-x="514" 
d="M51 154l149 149l-149 150l57 56l149 -149l149 149l57 -56l-150 -150l150 -149l-57 -56l-149 149l-149 -149z" />
    <glyph glyph-name="Oslash" unicode="&#xd8;" horiz-adv-x="703" 
d="M352 -14q-63 0 -115 18.5t-91 50.5l-61 -59l-44 44l62 60q-32 41 -48.5 91.5t-16.5 107.5q0 66 22 123t62.5 99.5t99 67t130.5 24.5q63 0 114 -18t91 -50l53 52l44 -44l-54 -53q32 -41 49.5 -92t17.5 -109q0 -65 -22 -122t-63 -99.5t-99 -67t-131 -24.5zM352 82
q48 0 87.5 16.5t67 46t43 69t15.5 85.5q0 75 -38 130l-309 -303q26 -21 60 -32.5t74 -11.5zM140 299q0 -36 9 -68.5t27 -58.5l309 302q-26 21 -60 32.5t-73 11.5q-48 0 -87 -17t-66.5 -46t-43 -69.5t-15.5 -86.5z" />
    <glyph glyph-name="Ugrave" unicode="&#xd9;" 
d="M331 -14q-61 0 -109.5 20t-82.5 55.5t-52 84.5t-18 108v346h99v-346q0 -36 10 -68t30.5 -55t51 -36.5t71.5 -13.5t71 13.5t50 36.5t30 55t10 68v346h99v-346q0 -59 -17.5 -108t-50.5 -84.5t-81.5 -55.5t-110.5 -20zM212 780v16h115l38 -142v-16h-63z" />
    <glyph glyph-name="Uacute" unicode="&#xda;" 
d="M361 638h-62v16l38 142h114v-16zM331 -14q-61 0 -109.5 20t-82.5 55.5t-52 84.5t-18 108v346h99v-346q0 -36 10 -68t30.5 -55t51 -36.5t71.5 -13.5t71 13.5t50 36.5t30 55t10 68v346h99v-346q0 -59 -17.5 -108t-50.5 -84.5t-81.5 -55.5t-110.5 -20z" />
    <glyph glyph-name="Ucircumflex" unicode="&#xdb;" 
d="M333 730l-85 -92h-63v16l95 142h104l95 -142v-16h-63zM331 -14q-61 0 -109.5 20t-82.5 55.5t-52 84.5t-18 108v346h99v-346q0 -36 10 -68t30.5 -55t51 -36.5t71.5 -13.5t71 13.5t50 36.5t30 55t10 68v346h99v-346q0 -59 -17.5 -108t-50.5 -84.5t-81.5 -55.5t-110.5 -20z
" />
    <glyph glyph-name="Udieresis" unicode="&#xdc;" 
d="M185 706q0 21 15.5 37t36.5 16t37 -16t16 -37t-16 -36.5t-37 -15.5t-36.5 15.5t-15.5 36.5zM369 706q0 21 15.5 37t36.5 16t37 -16t16 -37t-16 -36.5t-37 -15.5t-36.5 15.5t-15.5 36.5zM331 -14q-61 0 -109.5 20t-82.5 55.5t-52 84.5t-18 108v346h99v-346q0 -36 10 -68
t30.5 -55t51 -36.5t71.5 -13.5t71 13.5t50 36.5t30 55t10 68v346h99v-346q0 -59 -17.5 -108t-50.5 -84.5t-81.5 -55.5t-110.5 -20z" />
    <glyph glyph-name="Yacute" unicode="&#xdd;" horiz-adv-x="555" 
d="M442 600h114l-229 -371v-229h-99v229l-228 371h115l142 -235l16 -35h11l17 35zM310 638h-62v16l38 142h114v-16z" />
    <glyph glyph-name="Thorn" unicode="&#xde;" horiz-adv-x="606" 
d="M177 506h162q113 0 177.5 -52.5t64.5 -151.5q0 -52 -18 -91.5t-50.5 -66t-78.5 -40t-101 -13.5h-156v-91h-99v600h99v-94zM479 299q0 60 -39 89t-105 29h-158v-239h158q67 0 105.5 28.5t38.5 92.5z" />
    <glyph glyph-name="germandbls" unicode="&#xdf;" horiz-adv-x="491" 
d="M218 117v28l83 124h-150v-269h-98v446q0 86 39.5 135.5t133.5 49.5q17 0 30.5 -2.5t23.5 -4.5q11 -4 21 -7l-26 -84l-12 4q-5 2 -12.5 3.5t-15.5 1.5q-40 0 -62 -20t-22 -68v-107h295v-18l-104 -152q52 -8 85.5 -40t33.5 -94q0 -71 -49.5 -109.5t-132.5 -38.5
q-27 0 -46.5 2.5t-33.5 6.5q-16 4 -27 9l22 70q10 -4 22 -7q11 -2 24.5 -4t30.5 -2q40 0 62.5 21t22.5 53q0 36 -24 54.5t-64 18.5h-50z" />
    <glyph glyph-name="agrave" unicode="&#xe0;" horiz-adv-x="424" 
d="M26 101q0 48 38 77.5t113 29.5q46 0 69.5 -10t31.5 -16h5v16q0 38 -24 57.5t-77 19.5q-22 0 -39.5 -4t-30.5 -9q-15 -6 -27 -13l-31 72q16 9 38 16q19 6 46 11.5t62 5.5q94 0 135.5 -45.5t41.5 -118.5v-190h-70l-10 38h-5q-4 -6 -12 -13.5t-22.5 -15t-36 -12.5t-52.5 -5
q-70 0 -106.5 31.5t-36.5 77.5zM121 106q0 -20 18 -34.5t56 -14.5q39 0 62.5 17t23.5 34q0 20 -23.5 33.5t-62.5 13.5q-36 0 -55 -13t-19 -36zM85 561v16h115l38 -142v-16h-63z" />
    <glyph glyph-name="aacute" unicode="&#xe1;" horiz-adv-x="424" 
d="M26 101q0 48 38 77.5t113 29.5q46 0 69.5 -10t31.5 -16h5v16q0 38 -24 57.5t-77 19.5q-22 0 -39.5 -4t-30.5 -9q-15 -6 -27 -13l-31 72q16 9 38 16q19 6 46 11.5t62 5.5q94 0 135.5 -45.5t41.5 -118.5v-190h-70l-10 38h-5q-4 -6 -12 -13.5t-22.5 -15t-36 -12.5t-52.5 -5
q-70 0 -106.5 31.5t-36.5 77.5zM121 106q0 -20 18 -34.5t56 -14.5q39 0 62.5 17t23.5 34q0 20 -23.5 33.5t-62.5 13.5q-36 0 -55 -13t-19 -36zM233 419h-62v16l38 142h114v-16z" />
    <glyph glyph-name="acircumflex" unicode="&#xe2;" horiz-adv-x="424" 
d="M26 101q0 48 38 77.5t113 29.5q46 0 69.5 -10t31.5 -16h5v16q0 38 -24 57.5t-77 19.5q-22 0 -39.5 -4t-30.5 -9q-15 -6 -27 -13l-31 72q16 9 38 16q19 6 46 11.5t62 5.5q94 0 135.5 -45.5t41.5 -118.5v-190h-70l-10 38h-5q-4 -6 -12 -13.5t-22.5 -15t-36 -12.5t-52.5 -5
q-70 0 -106.5 31.5t-36.5 77.5zM121 106q0 -20 18 -34.5t56 -14.5q39 0 62.5 17t23.5 34q0 20 -23.5 33.5t-62.5 13.5q-36 0 -55 -13t-19 -36zM208 511l-85 -92h-63v16l95 142h104l95 -142v-16h-63z" />
    <glyph glyph-name="atilde" unicode="&#xe3;" horiz-adv-x="424" 
d="M26 101q0 48 38 77.5t113 29.5q46 0 69.5 -10t31.5 -16h5v16q0 38 -24 57.5t-77 19.5q-22 0 -39.5 -4t-30.5 -9q-15 -6 -27 -13l-31 72q16 9 38 16q19 6 46 11.5t62 5.5q94 0 135.5 -45.5t41.5 -118.5v-190h-70l-10 38h-5q-4 -6 -12 -13.5t-22.5 -15t-36 -12.5t-52.5 -5
q-70 0 -106.5 31.5t-36.5 77.5zM121 106q0 -20 18 -34.5t56 -14.5q39 0 62.5 17t23.5 34q0 20 -23.5 33.5t-62.5 13.5q-36 0 -55 -13t-19 -36zM276 434q-21 0 -38.5 6.5t-32.5 15t-29 15t-27 6.5q-17 0 -25 -8.5t-10 -22.5l-2 -14l-68 6l3 29q4 36 26 60.5t64 24.5
q21 0 38.5 -6.5t32.5 -15t28 -15t27 -6.5q18 0 25.5 8.5t10.5 22.5l3 14l69 -6l-4 -29q-7 -36 -28.5 -60.5t-62.5 -24.5z" />
    <glyph glyph-name="adieresis" unicode="&#xe4;" horiz-adv-x="424" 
d="M26 101q0 48 38 77.5t113 29.5q46 0 69.5 -10t31.5 -16h5v16q0 38 -24 57.5t-77 19.5q-22 0 -39.5 -4t-30.5 -9q-15 -6 -27 -13l-31 72q16 9 38 16q19 6 46 11.5t62 5.5q94 0 135.5 -45.5t41.5 -118.5v-190h-70l-10 38h-5q-4 -6 -12 -13.5t-22.5 -15t-36 -12.5t-52.5 -5
q-70 0 -106.5 31.5t-36.5 77.5zM121 106q0 -20 18 -34.5t56 -14.5q39 0 62.5 17t23.5 34q0 20 -23.5 33.5t-62.5 13.5q-36 0 -55 -13t-19 -36zM63 483q0 21 15.5 37t36.5 16t37 -16t16 -37t-16 -36.5t-37 -15.5t-36.5 15.5t-15.5 36.5zM247 483q0 21 15.5 37t36.5 16t37 -16
t16 -37t-16 -36.5t-37 -15.5t-36.5 15.5t-15.5 36.5z" />
    <glyph glyph-name="aring" unicode="&#xe5;" horiz-adv-x="424" 
d="M26 101q0 48 38 77.5t113 29.5q46 0 69.5 -10t31.5 -16h5v16q0 38 -24 57.5t-77 19.5q-22 0 -39.5 -4t-30.5 -9q-15 -6 -27 -13l-31 72q16 9 38 16q19 6 46 11.5t62 5.5q94 0 135.5 -45.5t41.5 -118.5v-190h-70l-10 38h-5q-4 -6 -12 -13.5t-22.5 -15t-36 -12.5t-52.5 -5
q-70 0 -106.5 31.5t-36.5 77.5zM121 106q0 -20 18 -34.5t56 -14.5q39 0 62.5 17t23.5 34q0 20 -23.5 33.5t-62.5 13.5q-36 0 -55 -13t-19 -36zM205 423q-44 0 -73 28t-29 70t29 70t73 28q43 0 72 -28t29 -70t-29 -70t-72 -28zM244 521q0 18 -10.5 29t-28.5 11q-17 0 -28 -11
t-11 -29q0 -17 11 -28t28 -11q18 0 28.5 11t10.5 28z" />
    <glyph glyph-name="ae" unicode="&#xe6;" horiz-adv-x="673" 
d="M619 28q-15 -11 -36 -19q-18 -8 -44 -13.5t-61 -5.5q-45 0 -81 14t-61 40q-24 -23 -60.5 -37.5t-88.5 -14.5q-43 0 -73.5 9t-50 24t-28.5 35t-9 43q0 47 38 75.5t106 28.5q29 0 49 -4t33 -8.5t19 -9t8 -5.5h2v15q0 38 -23 59.5t-76 21.5q-22 0 -39.5 -4t-31.5 -9
q-16 -5 -29 -12l-29 72q18 8 41 15q20 6 46.5 11t59.5 5q50 0 84 -13t55 -37q25 23 58.5 36.5t74.5 13.5q40 0 72.5 -12.5t55 -36t34.5 -56t12 -71.5q0 -4 -0.5 -8t-0.5 -8v-9h-264q7 -44 36.5 -65t71.5 -21q23 0 41 4t31 9q15 5 26 13zM119 106q0 -22 18 -36t58 -14
q38 0 63 15t25 36q0 20 -25.5 33.5t-62.5 13.5q-40 0 -58 -13.5t-18 -34.5zM471 282q-34 0 -57.5 -18.5t-30.5 -56.5h171q-3 32 -24 53.5t-59 21.5z" />
    <glyph glyph-name="ccedilla" unicode="&#xe7;" horiz-adv-x="361" 
d="M173 -48l21 43q-37 4 -67.5 19.5t-52 38.5t-33 53.5t-11.5 65.5q0 39 14.5 72.5t40 58t61.5 38t80 13.5q28 0 49.5 -5t35.5 -10q17 -6 29 -14l-29 -73q-10 6 -21 10q-10 4 -24.5 7.5t-31.5 3.5q-45 0 -75 -27t-30 -74q0 -45 30 -72t75 -27q17 0 31.5 3t24.5 7q11 4 21 11
l26 -72q-9 -7 -23 -13q-12 -5 -30 -9.5t-41 -6.5l-10 -23q28 0 47 -16t19 -48t-21.5 -52.5t-63.5 -20.5q-21 0 -36.5 5t-25.5 11q-11 7 -19 16l21 36q6 -7 15 -11q8 -5 18.5 -8t24.5 -3q38 0 38 29q0 14 -10 21.5t-26 7.5q-6 0 -10 -1t-7 -2l-6 -3z" />
    <glyph glyph-name="egrave" unicode="&#xe8;" horiz-adv-x="415" 
d="M362 30q-14 -11 -33 -20q-17 -8 -41.5 -14t-57.5 -6q-46 0 -83 14t-63 38.5t-40 57.5t-14 72t13.5 72.5t38 58t59 38t75.5 13.5q40 0 72.5 -13t54.5 -36.5t34 -55.5t12 -71v-24h-263q6 -45 36 -66t72 -21q23 0 41 4t30 9q14 5 25 13zM214 281q-33 0 -55.5 -18.5
t-30.5 -53.5h168q-5 31 -26 51.5t-56 20.5zM93 561v16h115l38 -142v-16h-63z" />
    <glyph glyph-name="eacute" unicode="&#xe9;" horiz-adv-x="415" 
d="M237 419h-62v16l38 142h114v-16zM362 30q-14 -11 -33 -20q-17 -8 -41.5 -14t-57.5 -6q-46 0 -83 14t-63 38.5t-40 57.5t-14 72t13.5 72.5t38 58t59 38t75.5 13.5q40 0 72.5 -13t54.5 -36.5t34 -55.5t12 -71v-24h-263q6 -45 36 -66t72 -21q23 0 41 4t30 9q14 5 25 13z
M214 281q-33 0 -55.5 -18.5t-30.5 -53.5h168q-5 31 -26 51.5t-56 20.5z" />
    <glyph glyph-name="ecircumflex" unicode="&#xea;" horiz-adv-x="415" 
d="M216 511l-85 -92h-63v16l95 142h104l95 -142v-16h-63zM362 30q-14 -11 -33 -20q-17 -8 -41.5 -14t-57.5 -6q-46 0 -83 14t-63 38.5t-40 57.5t-14 72t13.5 72.5t38 58t59 38t75.5 13.5q40 0 72.5 -13t54.5 -36.5t34 -55.5t12 -71v-24h-263q6 -45 36 -66t72 -21q23 0 41 4
t30 9q14 5 25 13zM214 281q-33 0 -55.5 -18.5t-30.5 -53.5h168q-5 31 -26 51.5t-56 20.5z" />
    <glyph glyph-name="edieresis" unicode="&#xeb;" horiz-adv-x="415" 
d="M72 483q0 21 15.5 37t36.5 16t37 -16t16 -37t-16 -36.5t-37 -15.5t-36.5 15.5t-15.5 36.5zM256 483q0 21 15.5 37t36.5 16t37 -16t16 -37t-16 -36.5t-37 -15.5t-36.5 15.5t-15.5 36.5zM362 30q-14 -11 -33 -20q-17 -8 -41.5 -14t-57.5 -6q-46 0 -83 14t-63 38.5t-40 57.5
t-14 72t13.5 72.5t38 58t59 38t75.5 13.5q40 0 72.5 -13t54.5 -36.5t34 -55.5t12 -71v-24h-263q6 -45 36 -66t72 -21q23 0 41 4t30 9q14 5 25 13zM214 281q-33 0 -55.5 -18.5t-30.5 -53.5h168q-5 31 -26 51.5t-56 20.5z" />
    <glyph glyph-name="igrave" unicode="&#xec;" horiz-adv-x="205" 
d="M54 346h98v-346h-98v346zM-21 561v16h115l38 -142v-16h-63z" />
    <glyph glyph-name="iacute" unicode="&#xed;" horiz-adv-x="205" 
d="M135 419h-62v16l38 142h114v-16zM54 346h98v-346h-98v346z" />
    <glyph glyph-name="icircumflex" unicode="&#xee;" horiz-adv-x="205" 
d="M102 511l-85 -92h-63v16l95 142h104l95 -142v-16h-63zM54 346h98v-346h-98v346z" />
    <glyph glyph-name="idieresis" unicode="&#xef;" horiz-adv-x="205" 
d="M-40 483q0 21 15.5 37t36.5 16t37 -16t16 -37t-16 -36.5t-37 -15.5t-36.5 15.5t-15.5 36.5zM144 483q0 21 15.5 37t36.5 16t37 -16t16 -37t-16 -36.5t-37 -15.5t-36.5 15.5t-15.5 36.5zM54 346h98v-346h-98v346z" />
    <glyph glyph-name="eth" unicode="&#xf0;" horiz-adv-x="465" 
d="M78 436l99 56l-58 96v12h92l41 -65l94 53l31 -54l-92 -53l94 -149q26 -41 40 -76.5t14 -84.5q0 -41 -14.5 -74.5t-41 -57t-63.5 -36t-82 -12.5q-44 0 -81 12.5t-64 36t-42 57t-15 74.5q0 39 14.5 72.5t41.5 58t64.5 38t82.5 13.5q16 0 33 -3v6q-5 5 -10 12q-11 12 -27 39
l-19 31l-100 -57zM334 173q0 42 -28 70.5t-73 28.5q-47 0 -75.5 -28.5t-28.5 -70.5q0 -45 29 -73t74 -28q46 0 74 28t28 73z" />
    <glyph glyph-name="ntilde" unicode="&#xf1;" horiz-adv-x="459" 
d="M53 346h63l13 -48h5q18 26 47.5 41t75.5 15q72 0 113.5 -41.5t41.5 -111.5v-201h-98v187q0 38 -20.5 62t-59.5 24q-20 0 -35.5 -6.5t-26 -16.5t-16 -23t-5.5 -26v-201h-98v346zM298 434q-21 0 -38.5 6.5t-32.5 15t-29 15t-27 6.5q-17 0 -25 -8.5t-10 -22.5l-2 -14l-68 6
l3 29q4 36 26 60.5t64 24.5q21 0 38.5 -6.5t32.5 -15t28 -15t27 -6.5q18 0 25.5 8.5t10.5 22.5l3 14l69 -6l-4 -29q-7 -36 -28.5 -60.5t-62.5 -24.5z" />
    <glyph glyph-name="ograve" unicode="&#xf2;" horiz-adv-x="445" 
d="M416 171q0 -41 -15.5 -74t-41.5 -56.5t-61 -36t-75 -12.5t-75 12.5t-61.5 36t-41.5 56.5t-15 74q0 42 15 75.5t41.5 57.5t61.5 37t75 13t75 -13t61 -37t41.5 -57.5t15.5 -75.5zM223 70q42 0 69.5 27.5t27.5 74.5q0 48 -27.5 76t-69.5 28t-69.5 -28t-27.5 -76
q0 -47 27.5 -74.5t69.5 -27.5zM102 561v16h115l38 -142v-16h-63z" />
    <glyph glyph-name="oacute" unicode="&#xf3;" horiz-adv-x="445" 
d="M259 419h-62v16l38 142h114v-16zM416 171q0 -41 -15.5 -74t-41.5 -56.5t-61 -36t-75 -12.5t-75 12.5t-61.5 36t-41.5 56.5t-15 74q0 42 15 75.5t41.5 57.5t61.5 37t75 13t75 -13t61 -37t41.5 -57.5t15.5 -75.5zM223 70q42 0 69.5 27.5t27.5 74.5q0 48 -27.5 76t-69.5 28
t-69.5 -28t-27.5 -76q0 -47 27.5 -74.5t69.5 -27.5z" />
    <glyph glyph-name="ocircumflex" unicode="&#xf4;" horiz-adv-x="445" 
d="M223 511l-85 -92h-63v16l95 142h104l95 -142v-16h-63zM416 171q0 -41 -15.5 -74t-41.5 -56.5t-61 -36t-75 -12.5t-75 12.5t-61.5 36t-41.5 56.5t-15 74q0 42 15 75.5t41.5 57.5t61.5 37t75 13t75 -13t61 -37t41.5 -57.5t15.5 -75.5zM223 70q42 0 69.5 27.5t27.5 74.5
q0 48 -27.5 76t-69.5 28t-69.5 -28t-27.5 -76q0 -47 27.5 -74.5t69.5 -27.5z" />
    <glyph glyph-name="otilde" unicode="&#xf5;" horiz-adv-x="445" 
d="M416 171q0 -41 -15.5 -74t-41.5 -56.5t-61 -36t-75 -12.5t-75 12.5t-61.5 36t-41.5 56.5t-15 74q0 42 15 75.5t41.5 57.5t61.5 37t75 13t75 -13t61 -37t41.5 -57.5t15.5 -75.5zM223 70q42 0 69.5 27.5t27.5 74.5q0 48 -27.5 76t-69.5 28t-69.5 -28t-27.5 -76
q0 -47 27.5 -74.5t69.5 -27.5zM288 434q-21 0 -38.5 6.5t-32.5 15t-29 15t-27 6.5q-17 0 -25 -8.5t-10 -22.5l-2 -14l-68 6l3 29q4 36 26 60.5t64 24.5q21 0 38.5 -6.5t32.5 -15t28 -15t27 -6.5q18 0 25.5 8.5t10.5 22.5l3 14l69 -6l-4 -29q-7 -36 -28.5 -60.5t-62.5 -24.5z
" />
    <glyph glyph-name="odieresis" unicode="&#xf6;" horiz-adv-x="445" 
d="M78 483q0 21 15.5 37t36.5 16t37 -16t16 -37t-16 -36.5t-37 -15.5t-36.5 15.5t-15.5 36.5zM262 483q0 21 15.5 37t36.5 16t37 -16t16 -37t-16 -36.5t-37 -15.5t-36.5 15.5t-15.5 36.5zM416 171q0 -41 -15.5 -74t-41.5 -56.5t-61 -36t-75 -12.5t-75 12.5t-61.5 36
t-41.5 56.5t-15 74q0 42 15 75.5t41.5 57.5t61.5 37t75 13t75 -13t61 -37t41.5 -57.5t15.5 -75.5zM223 70q42 0 69.5 27.5t27.5 74.5q0 48 -27.5 76t-69.5 28t-69.5 -28t-27.5 -76q0 -47 27.5 -74.5t69.5 -27.5z" />
    <glyph glyph-name="divide" unicode="&#xf7;" horiz-adv-x="496" 
d="M185 132q0 26 18.5 45t44.5 19t45 -19t19 -45t-19 -44t-45 -18t-44.5 18t-18.5 44zM185 463q0 27 18.5 45.5t44.5 18.5t45 -18.5t19 -45.5q0 -26 -19 -44t-45 -18t-44.5 18t-18.5 44zM48 337h400v-81h-400v81z" />
    <glyph glyph-name="oslash" unicode="&#xf8;" horiz-adv-x="445" 
d="M417 171q0 -41 -15.5 -74t-41.5 -56.5t-61 -36t-75 -12.5q-33 0 -62.5 8.5t-54.5 24.5l-38 -38l-34 34l36 36q-40 45 -40 114q0 42 15 75.5t41.5 57.5t61.5 37t75 13q63 0 111 -31l42 42l34 -34l-39 -39q21 -23 33 -53.5t12 -67.5zM224 70q42 0 69.5 27.5t27.5 74.5
q0 32 -14 57l-141 -142q25 -17 58 -17zM127 172q0 -28 11 -50l139 139q-11 7 -25 11t-28 4q-42 0 -69.5 -28t-27.5 -76z" />
    <glyph glyph-name="ugrave" unicode="&#xf9;" horiz-adv-x="457" 
d="M405 0h-66l-17 47h-4q-4 -8 -12.5 -17.5t-23 -17.5t-34.5 -14t-48 -6q-72 0 -112.5 41.5t-40.5 111.5v201h98v-187q0 -38 19.5 -62t58.5 -24q40 0 62 22.5t22 48.5v202h98v-346zM104 561v16h115l38 -142v-16h-63z" />
    <glyph glyph-name="uacute" unicode="&#xfa;" horiz-adv-x="457" 
d="M258 419h-62v16l38 142h114v-16zM405 0h-66l-17 47h-4q-4 -8 -12.5 -17.5t-23 -17.5t-34.5 -14t-48 -6q-72 0 -112.5 41.5t-40.5 111.5v201h98v-187q0 -38 19.5 -62t58.5 -24q40 0 62 22.5t22 48.5v202h98v-346z" />
    <glyph glyph-name="ucircumflex" unicode="&#xfb;" horiz-adv-x="457" 
d="M227 511l-85 -92h-63v16l95 142h104l95 -142v-16h-63zM405 0h-66l-17 47h-4q-4 -8 -12.5 -17.5t-23 -17.5t-34.5 -14t-48 -6q-72 0 -112.5 41.5t-40.5 111.5v201h98v-187q0 -38 19.5 -62t58.5 -24q40 0 62 22.5t22 48.5v202h98v-346z" />
    <glyph glyph-name="udieresis" unicode="&#xfc;" horiz-adv-x="457" 
d="M86 483q0 21 15.5 37t36.5 16t37 -16t16 -37t-16 -36.5t-37 -15.5t-36.5 15.5t-15.5 36.5zM270 483q0 21 15.5 37t36.5 16t37 -16t16 -37t-16 -36.5t-37 -15.5t-36.5 15.5t-15.5 36.5zM405 0h-66l-17 47h-4q-4 -8 -12.5 -17.5t-23 -17.5t-34.5 -14t-48 -6
q-72 0 -112.5 41.5t-40.5 111.5v201h98v-187q0 -38 19.5 -62t58.5 -24q40 0 62 22.5t22 48.5v202h98v-346z" />
    <glyph glyph-name="yacute" unicode="&#xfd;" horiz-adv-x="412" 
d="M156 -192h-104l109 220l-153 318h107l83 -194q3 -7 5.5 -15.5t3.5 -19.5h5q1 11 4 19.5t6 15.5l82 194h100zM244 419h-62v16l38 142h114v-16z" />
    <glyph glyph-name="thorn" unicode="&#xfe;" horiz-adv-x="467" 
d="M150 49v-241h-98v792h98v-300h4q9 15 24 27q13 10 34 18.5t53 8.5q37 0 68 -12.5t53.5 -36t35.5 -57t13 -75.5q0 -41 -13 -74t-36 -57t-54 -37t-67 -13q-32 0 -53.5 8.5t-34.5 19.5q-15 12 -23 29h-4zM146 173q0 -47 27 -73.5t69 -26.5t68 27.5t26 72.5q0 44 -26 72
t-68 28t-69 -27t-27 -73z" />
    <glyph glyph-name="ydieresis" unicode="&#xff;" horiz-adv-x="412" 
d="M156 -192h-104l109 220l-153 318h107l83 -194q3 -7 5.5 -15.5t3.5 -19.5h5q1 11 4 19.5t6 15.5l82 194h100zM67 483q0 21 15.5 37t36.5 16t37 -16t16 -37t-16 -36.5t-37 -15.5t-36.5 15.5t-15.5 36.5zM251 483q0 21 15.5 37t36.5 16t37 -16t16 -37t-16 -36.5t-37 -15.5
t-36.5 15.5t-15.5 36.5z" />
    <glyph glyph-name="Amacron" unicode="&#x100;" horiz-adv-x="614" 
d="M297 600h19l304 -600h-113l-45 91h-311l-44 -91h-112zM310 417h-6l-108 -235l-6 -10h233l-6 10zM170 703h272v-60h-272v60z" />
    <glyph glyph-name="amacron" unicode="&#x101;" horiz-adv-x="424" 
d="M26 101q0 48 38 77.5t113 29.5q46 0 69.5 -10t31.5 -16h5v16q0 38 -24 57.5t-77 19.5q-22 0 -39.5 -4t-30.5 -9q-15 -6 -27 -13l-31 72q16 9 38 16q19 6 46 11.5t62 5.5q94 0 135.5 -45.5t41.5 -118.5v-190h-70l-10 38h-5q-4 -6 -12 -13.5t-22.5 -15t-36 -12.5t-52.5 -5
q-70 0 -106.5 31.5t-36.5 77.5zM121 106q0 -20 18 -34.5t56 -14.5q39 0 62.5 17t23.5 34q0 20 -23.5 33.5t-62.5 13.5q-36 0 -55 -13t-19 -36zM70 502h272v-60h-272v60z" />
    <glyph glyph-name="Abreve" unicode="&#x102;" horiz-adv-x="614" 
d="M297 600h19l304 -600h-113l-45 91h-311l-44 -91h-112zM310 417h-6l-108 -235l-6 -10h233l-6 10zM445 805q0 -27 -9.5 -52t-27.5 -44t-44 -30.5t-59 -11.5t-59 11.5t-44 30.5t-27.5 44t-9.5 52h77q0 -32 17.5 -50t45.5 -18q27 0 45 18.5t18 49.5h77z" />
    <glyph glyph-name="abreve" unicode="&#x103;" horiz-adv-x="424" 
d="M26 101q0 48 38 77.5t113 29.5q46 0 69.5 -10t31.5 -16h5v16q0 38 -24 57.5t-77 19.5q-22 0 -39.5 -4t-30.5 -9q-15 -6 -27 -13l-31 72q16 9 38 16q19 6 46 11.5t62 5.5q94 0 135.5 -45.5t41.5 -118.5v-190h-70l-10 38h-5q-4 -6 -12 -13.5t-22.5 -15t-36 -12.5t-52.5 -5
q-70 0 -106.5 31.5t-36.5 77.5zM121 106q0 -20 18 -34.5t56 -14.5q39 0 62.5 17t23.5 34q0 20 -23.5 33.5t-62.5 13.5q-36 0 -55 -13t-19 -36zM352 580q0 -27 -9.5 -52t-27.5 -44t-44 -30.5t-59 -11.5t-59 11.5t-44 30.5t-27.5 44t-9.5 52h77q0 -32 17.5 -50t45.5 -18
q27 0 45 18.5t18 49.5h77z" />
    <glyph glyph-name="Aogonek" unicode="&#x104;" horiz-adv-x="613" 
d="M637 -109q-7 -9 -18 -15q-9 -6 -22.5 -10.5t-30.5 -4.5q-39 0 -60 20.5t-21 52.5q0 23 10.5 39t24.5 27h-13l-45 91h-311l-44 -91h-112l302 600h19l304 -600h-31q-1 0 -8.5 -3.5t-16 -10t-15.5 -16.5t-7 -24q0 -15 8.5 -24t25.5 -9q8 0 13 2t10 5q4 4 9 8zM310 417h-6
l-108 -235l-6 -10h233l-6 10z" />
    <glyph glyph-name="aogonek" unicode="&#x105;" horiz-adv-x="425" 
d="M424 -109q-7 -9 -18 -15q-9 -6 -22.5 -10.5t-30.5 -4.5q-39 0 -60 20.5t-21 52.5q0 23 10.5 39t24.5 27l-10 38h-5q-4 -6 -12 -13.5t-22.5 -15t-36 -12.5t-52.5 -5q-70 0 -106.5 31.5t-36.5 77.5q0 48 38 77.5t113 29.5q46 0 69.5 -10t31.5 -16h5v16q0 38 -24 57.5
t-77 19.5q-22 0 -39.5 -4t-30.5 -9q-15 -6 -27 -13l-31 72q16 9 38 16q19 6 46 11.5t62 5.5q94 0 135.5 -45.5t41.5 -118.5v-190q-13 -5 -24 -13q-9 -7 -16.5 -17t-7.5 -24q0 -15 8.5 -24t25.5 -9q8 0 13 2t10 5q4 4 9 8zM121 106q0 -20 18 -34.5t56 -14.5q39 0 62.5 17
t23.5 34q0 20 -23.5 33.5t-62.5 13.5q-36 0 -55 -13t-19 -36z" />
    <glyph glyph-name="Cacute" unicode="&#x106;" horiz-adv-x="586" 
d="M372 651h-62v16l38 142h114v-16zM565 62q-21 -21 -52 -38q-26 -14 -65.5 -26t-93.5 -12q-72 0 -130 24.5t-99.5 67t-64 99.5t-22.5 122q0 66 22.5 123t64 99.5t99.5 67t130 24.5q54 0 93.5 -12t65.5 -26q31 -17 52 -37l-57 -77q-19 16 -43 29q-20 11 -48 20t-61 9
q-48 0 -88 -17t-68.5 -46.5t-44 -70t-15.5 -86.5t15.5 -86t44 -69t68.5 -46t88 -17q36 0 64 8.5t48 19.5q23 12 40 29z" />
    <glyph glyph-name="cacute" unicode="&#x107;" horiz-adv-x="361" 
d="M223 419h-62v16l38 142h114v-16zM226 -8q-44 0 -80 13.5t-61.5 37.5t-40 57t-14.5 72t14.5 72.5t40 58t61.5 38t80 13.5q28 0 49.5 -5t35.5 -10q17 -6 29 -14l-29 -73q-10 6 -21 10q-10 4 -24.5 7.5t-31.5 3.5q-45 0 -75 -27t-30 -74q0 -45 30 -72t75 -27q17 0 31.5 3
t24.5 7q11 4 21 11l26 -72q-11 -9 -27 -15q-14 -6 -35 -10.5t-49 -4.5z" />
    <glyph glyph-name="Cdotaccent" unicode="&#x10a;" horiz-adv-x="586" 
d="M565 62q-21 -21 -52 -38q-26 -14 -65.5 -26t-93.5 -12q-72 0 -130 24.5t-99.5 67t-64 99.5t-22.5 122q0 66 22.5 123t64 99.5t99.5 67t130 24.5q54 0 93.5 -12t65.5 -26q31 -17 52 -37l-57 -77q-19 16 -43 29q-20 11 -48 20t-61 9q-48 0 -88 -17t-68.5 -46.5t-44 -70
t-15.5 -86.5t15.5 -86t44 -69t68.5 -46t88 -17q36 0 64 8.5t48 19.5q23 12 40 29zM285 746q0 27 18 45.5t45 18.5t45.5 -18.5t18.5 -45.5t-18.5 -45.5t-45.5 -18.5t-45 18.5t-18 45.5z" />
    <glyph glyph-name="cdotaccent" unicode="&#x10b;" horiz-adv-x="361" 
d="M226 -8q-44 0 -80 13.5t-61.5 37.5t-40 57t-14.5 72t14.5 72.5t40 58t61.5 38t80 13.5q28 0 49.5 -5t35.5 -10q17 -6 29 -14l-29 -73q-10 6 -21 10q-10 4 -24.5 7.5t-31.5 3.5q-45 0 -75 -27t-30 -74q0 -45 30 -72t75 -27q17 0 31.5 3t24.5 7q11 4 21 11l26 -72
q-11 -9 -27 -15q-14 -6 -35 -10.5t-49 -4.5zM145 506q0 27 18 45.5t45 18.5t45.5 -18.5t18.5 -45.5t-18.5 -45.5t-45.5 -18.5t-45 18.5t-18 45.5z" />
    <glyph glyph-name="Ccaron" unicode="&#x10c;" horiz-adv-x="586" 
d="M423 811h63v-16l-95 -142h-104l-95 142v16h63l85 -92zM565 62q-21 -21 -52 -38q-26 -14 -65.5 -26t-93.5 -12q-72 0 -130 24.5t-99.5 67t-64 99.5t-22.5 122q0 66 22.5 123t64 99.5t99.5 67t130 24.5q54 0 93.5 -12t65.5 -26q31 -17 52 -37l-57 -77q-19 16 -43 29
q-20 11 -48 20t-61 9q-48 0 -88 -17t-68.5 -46.5t-44 -70t-15.5 -86.5t15.5 -86t44 -69t68.5 -46t88 -17q36 0 64 8.5t48 19.5q23 12 40 29z" />
    <glyph glyph-name="ccaron" unicode="&#x10d;" horiz-adv-x="361" 
d="M295 577h63v-16l-95 -142h-104l-95 142v16h63l85 -92zM226 -8q-44 0 -80 13.5t-61.5 37.5t-40 57t-14.5 72t14.5 72.5t40 58t61.5 38t80 13.5q28 0 49.5 -5t35.5 -10q17 -6 29 -14l-29 -73q-10 6 -21 10q-10 4 -24.5 7.5t-31.5 3.5q-45 0 -75 -27t-30 -74q0 -45 30 -72
t75 -27q17 0 31.5 3t24.5 7q11 4 21 11l26 -72q-11 -9 -27 -15q-14 -6 -35 -10.5t-49 -4.5z" />
    <glyph glyph-name="Dcaron" unicode="&#x10e;" 
d="M395 811h63v-16l-95 -142h-104l-95 142v16h63l85 -92zM621 300q0 -67 -22.5 -122.5t-64 -95t-100.5 -61t-132 -21.5h-224v600h224q73 0 132 -21.5t100.5 -61t64 -95t22.5 -122.5zM177 512v-424h118q48 0 89 14t71.5 41t47.5 66.5t17 90.5t-17 90.5t-47.5 66.5t-71.5 41
t-89 14h-118z" />
    <glyph glyph-name="dcaron" unicode="&#x10f;" horiz-adv-x="467" 
d="M455 609q0 26 17 43.5t49 17.5q31 0 49.5 -19.5t18.5 -49.5q-1 -34 -23 -71l-28 -48h-67l26 42q3 5 6.5 9t5.5 7q3 4 5 6v3q-29 2 -44 19t-15 41zM316 310v358h98v-668h-66l-15 48h-4q-10 -16 -27 -28q-14 -11 -38 -19.5t-59 -8.5q-37 0 -69 12.5t-55 36t-36.5 57
t-13.5 75.5q0 40 13 73.5t36 57.5t54 37t67 13q32 0 53 -7t34 -15q15 -10 24 -22h4zM321 173q0 47 -27 73.5t-69 26.5t-68.5 -27.5t-26.5 -72.5q0 -44 26.5 -72t68.5 -28t69 27t27 73z" />
    <glyph glyph-name="Dcroat" unicode="&#x110;" horiz-adv-x="669" 
d="M13 331h73v269h224q73 0 132 -21.5t100.5 -61t64 -95t22.5 -122.5t-22.5 -122.5t-64 -95t-100.5 -61t-132 -21.5h-224v269h-73v62zM185 512v-181h113v-62h-113v-181h118q48 0 89 14t71.5 41t47.5 66.5t17 90.5t-17 90.5t-47.5 66.5t-71.5 41t-89 14h-118z" />
    <glyph glyph-name="dcroat" unicode="&#x111;" horiz-adv-x="467" 
d="M194 509h122v159h98v-159h56v-53h-56v-456h-66l-15 48h-4q-10 -16 -27 -28q-14 -11 -38 -19.5t-59 -8.5q-37 0 -69 12.5t-55 36t-36.5 57t-13.5 75.5q0 40 13 73.5t36 57.5t54 37t67 13q32 0 53 -7t34 -15q15 -10 24 -22h4v146h-122v53zM321 173q0 47 -27 73.5t-69 26.5
t-68.5 -27.5t-26.5 -72.5q0 -44 26.5 -72t68.5 -28t69 27t27 73z" />
    <glyph glyph-name="Emacron" unicode="&#x112;" horiz-adv-x="570" 
d="M479 255h-302v-167h356v-88h-455v600h455v-88h-356v-173h302v-84zM168 746h272v-60h-272v60z" />
    <glyph glyph-name="emacron" unicode="&#x113;" horiz-adv-x="415" 
d="M362 30q-14 -11 -33 -20q-17 -8 -41.5 -14t-57.5 -6q-46 0 -83 14t-63 38.5t-40 57.5t-14 72t13.5 72.5t38 58t59 38t75.5 13.5q40 0 72.5 -13t54.5 -36.5t34 -55.5t12 -71v-24h-263q6 -45 36 -66t72 -21q23 0 41 4t30 9q14 5 25 13zM214 281q-33 0 -55.5 -18.5
t-30.5 -53.5h168q-5 31 -26 51.5t-56 20.5zM79 502h272v-60h-272v60z" />
    <glyph glyph-name="Edotaccent" unicode="&#x116;" horiz-adv-x="570" 
d="M479 255h-302v-167h356v-88h-455v600h455v-88h-356v-173h302v-84zM252 731q0 27 18 45.5t45 18.5t45.5 -18.5t18.5 -45.5t-18.5 -45.5t-45.5 -18.5t-45 18.5t-18 45.5z" />
    <glyph glyph-name="edotaccent" unicode="&#x117;" horiz-adv-x="415" 
d="M362 30q-14 -11 -33 -20q-17 -8 -41.5 -14t-57.5 -6q-46 0 -83 14t-63 38.5t-40 57.5t-14 72t13.5 72.5t38 58t59 38t75.5 13.5q40 0 72.5 -13t54.5 -36.5t34 -55.5t12 -71v-24h-263q6 -45 36 -66t72 -21q23 0 41 4t30 9q14 5 25 13zM214 281q-33 0 -55.5 -18.5
t-30.5 -53.5h168q-5 31 -26 51.5t-56 20.5zM151 506q0 27 18 45.5t45 18.5t45.5 -18.5t18.5 -45.5t-18.5 -45.5t-45.5 -18.5t-45 18.5t-18 45.5z" />
    <glyph glyph-name="Eogonek" unicode="&#x118;" horiz-adv-x="570" 
d="M479 255h-302v-167h356v-88h-43q-13 -5 -24 -13q-9 -7 -16.5 -17t-7.5 -24q0 -15 8.5 -24t25.5 -9q8 0 13 2t10 5q4 4 9 8l29 -37q-7 -9 -18 -15q-9 -6 -22.5 -10.5t-30.5 -4.5q-39 0 -60 20.5t-21 52.5q0 23 10.5 39t24.5 27h-342v600h455v-88h-356v-173h302v-84z" />
    <glyph glyph-name="eogonek" unicode="&#x119;" horiz-adv-x="416" 
d="M362 30q-6 -6 -15 -11q-8 -5 -18 -9.5t-24 -9.5q-11 -4 -25.5 -16t-14.5 -34q0 -15 8.5 -24t25.5 -9q8 0 13 2t10 5q4 4 9 8l29 -37q-7 -9 -18 -15q-9 -6 -22.5 -10.5t-30.5 -4.5q-39 0 -60 20.5t-21 52.5q0 17 5.5 29.5t14.5 22.5q-46 0 -82.5 14t-62 38.5t-39.5 57.5
t-14 72t13.5 72.5t38 58t59 38t75.5 13.5q40 0 72.5 -13t54.5 -36.5t34 -55.5t12 -71v-24h-263q6 -45 36 -66t72 -21q23 0 41 4t30 9q14 5 25 13zM214 281q-33 0 -55.5 -18.5t-30.5 -53.5h168q-5 31 -26 51.5t-56 20.5z" />
    <glyph glyph-name="Ecaron" unicode="&#x11a;" horiz-adv-x="570" 
d="M392 802h63v-16l-95 -142h-104l-95 142v16h63l85 -92zM479 255h-302v-167h356v-88h-455v600h455v-88h-356v-173h302v-84z" />
    <glyph glyph-name="ecaron" unicode="&#x11b;" horiz-adv-x="415" 
d="M299 577h63v-16l-95 -142h-104l-95 142v16h63l85 -92zM362 30q-14 -11 -33 -20q-17 -8 -41.5 -14t-57.5 -6q-46 0 -83 14t-63 38.5t-40 57.5t-14 72t13.5 72.5t38 58t59 38t75.5 13.5q40 0 72.5 -13t54.5 -36.5t34 -55.5t12 -71v-24h-263q6 -45 36 -66t72 -21q23 0 41 4
t30 9q14 5 25 13zM214 281q-33 0 -55.5 -18.5t-30.5 -53.5h168q-5 31 -26 51.5t-56 20.5z" />
    <glyph glyph-name="Gbreve" unicode="&#x11e;" horiz-adv-x="665" 
d="M532 255h-195v84h298v-51q0 -68 -18.5 -123.5t-54.5 -95t-89 -61.5t-121 -22q-73 0 -131.5 24.5t-99 67t-62 99.5t-21.5 122q0 66 22 123t63 99.5t99.5 67t131.5 24.5q58 0 100 -12.5t70 -26.5q33 -17 54 -38l-59 -76q-19 16 -44 29q-21 11 -52 20.5t-70 9.5
q-48 0 -87.5 -17t-67.5 -46.5t-43 -70t-15 -86.5t14.5 -86t42 -69t66.5 -46t88 -17q41 0 74.5 13t57 35.5t36.5 54t13 68.5v3zM489 805q0 -27 -9.5 -52t-27.5 -44t-44 -30.5t-59 -11.5t-59 11.5t-44 30.5t-27.5 44t-9.5 52h77q0 -32 17.5 -50t45.5 -18q27 0 45 18.5t18 49.5
h77z" />
    <glyph glyph-name="gbreve" unicode="&#x11f;" horiz-adv-x="416" 
d="M218 -237q-97 0 -145 36.5t-48 89.5q0 30 14.5 54.5t48.5 39.5v6q-31 14 -43.5 33t-12.5 43t12 44t45 36q-25 33 -25 75q0 30 11 54.5t31 42t46.5 27t58.5 9.5q17 0 47.5 -1.5t61.5 -3.5q36 -2 77 -4v-68h-57v-5q5 -4 9 -12q3 -7 6 -17.5t3 -26.5q0 -24 -10 -46.5
t-29 -39.5t-46.5 -27t-61.5 -10q-39 0 -70 14q-14 -7 -19 -14t-5 -17q0 -8 4 -15t15.5 -12t31 -8t50.5 -3q104 0 149.5 -35.5t45.5 -97.5q0 -30 -12.5 -55.5t-37 -44.5t-61 -30t-84.5 -11zM218 -38q-53 0 -76 -19.5t-23 -44.5t23 -44t76 -19t76 18.5t23 44.5t-23 45t-76 19z
M211 282q-32 0 -49.5 -17.5t-17.5 -43.5t17.5 -43t49.5 -17t49.5 17t17.5 43t-17.5 43.5t-49.5 17.5zM354 580q0 -27 -9.5 -52t-27.5 -44t-44 -30.5t-59 -11.5t-59 11.5t-44 30.5t-27.5 44t-9.5 52h77q0 -32 17.5 -50t45.5 -18q27 0 45 18.5t18 49.5h77z" />
    <glyph glyph-name="Gdotaccent" unicode="&#x120;" horiz-adv-x="665" 
d="M532 255h-195v84h298v-51q0 -68 -18.5 -123.5t-54.5 -95t-89 -61.5t-121 -22q-73 0 -131.5 24.5t-99 67t-62 99.5t-21.5 122q0 66 22 123t63 99.5t99.5 67t131.5 24.5q58 0 100 -12.5t70 -26.5q33 -17 54 -38l-59 -76q-19 16 -44 29q-21 11 -52 20.5t-70 9.5
q-48 0 -87.5 -17t-67.5 -46.5t-43 -70t-15 -86.5t14.5 -86t42 -69t66.5 -46t88 -17q41 0 74.5 13t57 35.5t36.5 54t13 68.5v3zM282 731q0 27 18 45.5t45 18.5t45.5 -18.5t18.5 -45.5t-18.5 -45.5t-45.5 -18.5t-45 18.5t-18 45.5z" />
    <glyph glyph-name="gdotaccent" unicode="&#x121;" horiz-adv-x="416" 
d="M218 -237q-97 0 -145 36.5t-48 89.5q0 30 14.5 54.5t48.5 39.5v6q-31 14 -43.5 33t-12.5 43t12 44t45 36q-25 33 -25 75q0 30 11 54.5t31 42t46.5 27t58.5 9.5q17 0 47.5 -1.5t61.5 -3.5q36 -2 77 -4v-68h-57v-5q5 -4 9 -12q3 -7 6 -17.5t3 -26.5q0 -24 -10 -46.5
t-29 -39.5t-46.5 -27t-61.5 -10q-39 0 -70 14q-14 -7 -19 -14t-5 -17q0 -8 4 -15t15.5 -12t31 -8t50.5 -3q104 0 149.5 -35.5t45.5 -97.5q0 -30 -12.5 -55.5t-37 -44.5t-61 -30t-84.5 -11zM218 -38q-53 0 -76 -19.5t-23 -44.5t23 -44t76 -19t76 18.5t23 44.5t-23 45t-76 19z
M211 282q-32 0 -49.5 -17.5t-17.5 -43.5t17.5 -43t49.5 -17t49.5 17t17.5 43t-17.5 43.5t-49.5 17.5zM154 506q0 27 18 45.5t45 18.5t45.5 -18.5t18.5 -45.5t-18.5 -45.5t-45.5 -18.5t-45 18.5t-18 45.5z" />
    <glyph glyph-name="uni0122" unicode="&#x122;" horiz-adv-x="665" 
d="M284 -97q0 26 17 43.5t49 17.5q31 0 49.5 -19.5t18.5 -49.5q-1 -34 -23 -71l-28 -48h-67l26 42q3 5 6.5 9t5.5 7q3 4 5 6v3q-29 2 -44 19t-15 41zM532 255h-195v84h298v-51q0 -68 -18.5 -123.5t-54.5 -95t-89 -61.5t-121 -22q-73 0 -131.5 24.5t-99 67t-62 99.5
t-21.5 122q0 66 22 123t63 99.5t99.5 67t131.5 24.5q58 0 100 -12.5t70 -26.5q33 -17 54 -38l-59 -76q-19 16 -44 29q-21 11 -52 20.5t-70 9.5q-48 0 -87.5 -17t-67.5 -46.5t-43 -70t-15 -86.5t14.5 -86t42 -69t66.5 -46t88 -17q41 0 74.5 13t57 35.5t36.5 54t13 68.5v3z
" />
    <glyph glyph-name="uni0123" unicode="&#x123;" horiz-adv-x="416" 
d="M273 482q0 -26 -17 -43.5t-49 -17.5q-31 0 -49.5 19.5t-18.5 49.5q1 34 23 71l28 48h67l-26 -42q-4 -5 -7 -9t-5 -7q-3 -4 -5 -6v-3q29 -2 44 -19t15 -41zM218 -237q-97 0 -145 36.5t-48 89.5q0 30 14.5 54.5t48.5 39.5v6q-31 14 -43.5 33t-12.5 43t12 44t45 36
q-25 33 -25 75q0 30 11 54.5t31 42t46.5 27t58.5 9.5q17 0 47.5 -1.5t61.5 -3.5q36 -2 77 -4v-68h-57v-5q5 -4 9 -12q3 -7 6 -17.5t3 -26.5q0 -24 -10 -46.5t-29 -39.5t-46.5 -27t-61.5 -10q-39 0 -70 14q-14 -7 -19 -14t-5 -17q0 -8 4 -15t15.5 -12t31 -8t50.5 -3
q104 0 149.5 -35.5t45.5 -97.5q0 -30 -12.5 -55.5t-37 -44.5t-61 -30t-84.5 -11zM218 -38q-53 0 -76 -19.5t-23 -44.5t23 -44t76 -19t76 18.5t23 44.5t-23 45t-76 19zM211 282q-32 0 -49.5 -17.5t-17.5 -43.5t17.5 -43t49.5 -17t49.5 17t17.5 43t-17.5 43.5t-49.5 17.5z" />
    <glyph glyph-name="Hbar" unicode="&#x126;" horiz-adv-x="684" 
d="M603 505h30v-59h-30v-446h-99v252h-324v-252h-99v446h-31v59h31v95h99v-95h324v95h99v-95zM504 336v110h-324v-110h324z" />
    <glyph glyph-name="hbar" unicode="&#x127;" horiz-adv-x="460" 
d="M0 509h53v159h98v-159h125v-53h-125v-142h3q14 15 38.5 27.5t69.5 12.5q69 0 109.5 -41t40.5 -112v-201h-98v188q0 38 -20.5 61.5t-58.5 23.5q-20 0 -35.5 -6.5t-26.5 -16.5t-16.5 -23t-5.5 -26v-201h-98v456h-53v53z" />
    <glyph glyph-name="Itilde" unicode="&#x128;" horiz-adv-x="256" 
d="M177 0h-99v600h99v-600zM197 655q-21 0 -38.5 6.5t-32.5 15t-29 15t-27 6.5q-17 0 -25 -8.5t-10 -22.5l-2 -14l-68 6l3 29q4 36 26 60.5t64 24.5q21 0 38.5 -6.5t32.5 -15t28 -15t27 -6.5q18 0 25.5 8.5t10.5 22.5l3 14l69 -6l-4 -29q-7 -36 -28.5 -60.5t-62.5 -24.5z
" />
    <glyph glyph-name="itilde" unicode="&#x129;" horiz-adv-x="205" 
d="M54 346h98v-346h-98v346zM170 434q-21 0 -38.5 6.5t-32.5 15t-29 15t-27 6.5q-17 0 -25 -8.5t-10 -22.5l-2 -14l-68 6l3 29q4 36 26 60.5t64 24.5q21 0 38.5 -6.5t32.5 -15t28 -15t27 -6.5q18 0 25.5 8.5t10.5 22.5l3 14l69 -6l-4 -29q-7 -36 -28.5 -60.5t-62.5 -24.5z
" />
    <glyph glyph-name="Imacron" unicode="&#x12a;" horiz-adv-x="256" 
d="M177 0h-99v600h99v-600zM-9 717h272v-60h-272v60z" />
    <glyph glyph-name="imacron" unicode="&#x12b;" horiz-adv-x="205" 
d="M54 346h98v-346h-98v346zM-35 502h272v-60h-272v60z" />
    <glyph glyph-name="Iogonek" unicode="&#x12e;" horiz-adv-x="255" 
d="M224 -109q-7 -9 -18 -15q-9 -6 -22.5 -10.5t-30.5 -4.5q-39 0 -60 20.5t-21 52.5q0 23 10.5 39t24.5 27h-29v600h99v-600h-1q-1 0 -8.5 -3.5t-16 -10t-15.5 -16.5t-7 -24q0 -15 8.5 -24t25.5 -9q8 0 13 2t10 5q4 4 9 8z" />
    <glyph glyph-name="iogonek" unicode="&#x12f;" horiz-adv-x="206" 
d="M55 346h98v-346q-13 -5 -24 -13q-9 -7 -16.5 -17t-7.5 -24q0 -15 8.5 -24t25.5 -9q8 0 13 2t10 5q4 4 9 8l29 -37q-7 -9 -18 -15q-9 -6 -22.5 -10.5t-30.5 -4.5q-39 0 -60 20.5t-21 52.5q0 23 10.5 39t24.5 27h-28v346zM104 470q-25 0 -41.5 16.5t-16.5 41.5t16.5 42
t41.5 17t42 -17t17 -42t-17 -41.5t-42 -16.5z" />
    <glyph glyph-name="Idotaccent" unicode="&#x130;" horiz-adv-x="256" 
d="M177 0h-99v600h99v-600zM65 730q0 27 18 45.5t45 18.5t45.5 -18.5t18.5 -45.5t-18.5 -45.5t-45.5 -18.5t-45 18.5t-18 45.5z" />
    <glyph glyph-name="dotlessi" unicode="&#x131;" horiz-adv-x="206" 
d="M54 346h98v-346h-98v346z" />
    <glyph glyph-name="IJ" unicode="&#x132;" horiz-adv-x="775" 
d="M177 0h-99v600h99v-600zM374 117q14 -10 31 -18q14 -7 33.5 -12t42.5 -5q60 0 90.5 32t31.5 104v382h100v-401q0 -47 -13.5 -86.5t-40 -67.5t-66.5 -43.5t-95 -15.5q-38 0 -67 7t-49 16t-31 17t-13 10z" />
    <glyph glyph-name="ij" unicode="&#x133;" horiz-adv-x="469" 
d="M103 470q-25 0 -41.5 16.5t-16.5 41.5t16.5 42t41.5 17t42 -17t17 -42t-17 -41.5t-42 -16.5zM54 346h98v-346h-98v346zM253 -111q4 -2 9 -4q10 -4 21 -4q35 0 35 43v422h99v-426q0 -57 -25 -89t-85 -32q-17 0 -29.5 2.5t-21.5 5.5q-11 4 -18 9zM367 470q-24 0 -41 16.5
t-17 41.5t17 42t41 17q25 0 42 -17t17 -42t-17 -41.5t-42 -16.5z" />
    <glyph glyph-name="uni0136" unicode="&#x136;" horiz-adv-x="611" 
d="M254 -97q0 26 17 43.5t49 17.5q31 0 49.5 -19.5t18.5 -49.5q-1 -34 -23 -71l-28 -48h-67l26 42q3 5 6.5 9t5.5 7q3 4 5 6v3q-29 2 -44 19t-15 41zM177 295l301 305h120v-12l-237 -241l237 -334v-13h-117l-191 275l-113 -116v-159h-99v600h99v-305z" />
    <glyph glyph-name="uni0137" unicode="&#x137;" horiz-adv-x="412" 
d="M146 -97q0 26 17 43.5t49 17.5q31 0 49.5 -19.5t18.5 -49.5q-1 -34 -23 -71l-28 -48h-67l26 42q3 5 6.5 9t5.5 7q3 4 5 6v3q-29 2 -44 19t-15 41zM388 346l-141 -168l161 -178h-125l-130 147h-3v-147h-98v668h98v-473h2l125 151h111z" />
    <glyph glyph-name="kgreenlandic" unicode="&#x138;" horiz-adv-x="413" 
d="M388 346l-141 -169l161 -177h-125l-130 147h-3v-147h-98v346h98v-151h3l124 151h111z" />
    <glyph glyph-name="Lacute" unicode="&#x139;" horiz-adv-x="522" 
d="M159 638h-62v16l38 142h114v-16zM78 0v600h99v-512h333v-88h-432z" />
    <glyph glyph-name="lacute" unicode="&#x13a;" horiz-adv-x="205" 
d="M133 717h-62v16l38 142h114v-16zM54 668h98v-668h-98v668z" />
    <glyph glyph-name="uni013B" unicode="&#x13b;" horiz-adv-x="522" 
d="M222 -97q0 26 17 43.5t49 17.5q31 0 49.5 -19.5t18.5 -49.5q-1 -34 -23 -71l-28 -48h-67l26 42q3 5 6.5 9t5.5 7q3 4 5 6v3q-29 2 -44 19t-15 41zM78 0v600h99v-512h333v-88h-432z" />
    <glyph glyph-name="uni013C" unicode="&#x13c;" horiz-adv-x="205" 
d="M39 -97q0 26 17 43.5t49 17.5q31 0 49.5 -19.5t18.5 -49.5q-1 -34 -23 -71l-28 -48h-67l26 42q3 5 6.5 9t5.5 7q3 4 5 6v3q-29 2 -44 19t-15 41zM54 668h98v-668h-98v668z" />
    <glyph glyph-name="Lcaron" unicode="&#x13d;" horiz-adv-x="523" 
d="M317 539q0 26 17 43.5t49 17.5q31 0 49.5 -19.5t18.5 -49.5q-1 -34 -23 -71l-28 -48h-67l26 42q3 5 6.5 9t5.5 7q3 4 5 6v3q-29 2 -44 19t-15 41zM78 0v600h99v-512h333v-88h-432z" />
    <glyph glyph-name="lcaron" unicode="&#x13e;" horiz-adv-x="205" 
d="M192 609q0 26 17 43.5t49 17.5q31 0 49.5 -19.5t18.5 -49.5q-1 -34 -23 -71l-28 -48h-67l26 42q3 5 6.5 9t5.5 7q3 4 5 6v3q-29 2 -44 19t-15 41zM54 668h98v-668h-98v668z" />
    <glyph glyph-name="Ldot" unicode="&#x13f;" horiz-adv-x="523" 
d="M78 0v600h99v-512h333v-88h-432zM329 340q0 27 18 45.5t45 18.5t45.5 -18.5t18.5 -45.5t-18.5 -45.5t-45.5 -18.5t-45 18.5t-18 45.5z" />
    <glyph glyph-name="ldot" unicode="&#x140;" horiz-adv-x="326" 
d="M54 668h98v-668h-98v668zM202 286q0 27 18 45.5t45 18.5t45.5 -18.5t18.5 -45.5t-18.5 -45.5t-45.5 -18.5t-45 18.5t-18 45.5z" />
    <glyph glyph-name="Lslash" unicode="&#x141;" horiz-adv-x="532" 
d="M5 265l83 48v287h99v-230l101 58l26 -45l-127 -73v-222h333v-88h-432v253l-57 -33z" />
    <glyph glyph-name="lslash" unicode="&#x142;" horiz-adv-x="267" 
d="M12 260l85 49v359h98v-303l69 40l24 -41l-93 -54v-310h-98v254l-61 -35z" />
    <glyph glyph-name="Nacute" unicode="&#x143;" horiz-adv-x="696" 
d="M369 638h-62v16l38 142h114v-16zM618 0h-26l-415 402v-402h-99v600h26l415 -396v396h99v-600z" />
    <glyph glyph-name="nacute" unicode="&#x144;" horiz-adv-x="459" 
d="M269 419h-62v16l38 142h114v-16zM53 346h63l13 -48h5q18 26 47.5 41t75.5 15q72 0 113.5 -41.5t41.5 -111.5v-201h-98v187q0 38 -20.5 62t-59.5 24q-20 0 -35.5 -6.5t-26 -16.5t-16 -23t-5.5 -26v-201h-98v346z" />
    <glyph glyph-name="uni0145" unicode="&#x145;" horiz-adv-x="696" 
d="M299 -97q0 26 17 43.5t49 17.5q31 0 49.5 -19.5t18.5 -49.5q-1 -34 -23 -71l-28 -48h-67l26 42q3 5 6.5 9t5.5 7q3 4 5 6v3q-29 2 -44 19t-15 41zM618 0h-26l-415 402v-402h-99v600h26l415 -396v396h99v-600z" />
    <glyph glyph-name="uni0146" unicode="&#x146;" horiz-adv-x="459" 
d="M165 -97q0 26 17 43.5t49 17.5q31 0 49.5 -19.5t18.5 -49.5q-1 -34 -23 -71l-28 -48h-67l26 42q3 5 6.5 9t5.5 7q3 4 5 6v3q-29 2 -44 19t-15 41zM53 346h63l13 -48h5q18 26 47.5 41t75.5 15q72 0 113.5 -41.5t41.5 -111.5v-201h-98v187q0 38 -20.5 62t-59.5 24
q-20 0 -35.5 -6.5t-26 -16.5t-16 -23t-5.5 -26v-201h-98v346z" />
    <glyph glyph-name="Ncaron" unicode="&#x147;" horiz-adv-x="696" 
d="M422 796h63v-16l-95 -142h-104l-95 142v16h63l85 -92zM618 0h-26l-415 402v-402h-99v600h26l415 -396v396h99v-600z" />
    <glyph glyph-name="ncaron" unicode="&#x148;" horiz-adv-x="459" 
d="M314 577h63v-16l-95 -142h-104l-95 142v16h63l85 -92zM53 346h63l13 -48h5q18 26 47.5 41t75.5 15q72 0 113.5 -41.5t41.5 -111.5v-201h-98v187q0 38 -20.5 62t-59.5 24q-20 0 -35.5 -6.5t-26 -16.5t-16 -23t-5.5 -26v-201h-98v346z" />
    <glyph glyph-name="Eng" unicode="&#x14a;" horiz-adv-x="696" 
d="M618 -76q0 -58 -28 -91.5t-88 -33.5q-19 0 -33.5 3t-25.5 8q-12 4 -22 11l26 73q5 -3 10 -5t11 -3t13 -1q38 0 38 46v139l-342 332v-402h-99v600h26l415 -396v396h99v-676z" />
    <glyph glyph-name="eng" unicode="&#x14b;" horiz-adv-x="459" 
d="M53 346h63l13 -48h5q18 26 47.5 41t75.5 15q72 0 113.5 -41.5t41.5 -111.5v-272q0 -57 -27.5 -90.5t-87.5 -33.5q-19 0 -33.5 3t-25.5 7q-12 4 -22 11l26 74q5 -3 11 -5q10 -5 24 -5q37 0 37 50v247q0 38 -20.5 62t-59.5 24q-20 0 -35.5 -6.5t-26 -16.5t-16 -23t-5.5 -26
v-201h-98v346z" />
    <glyph glyph-name="Omacron" unicode="&#x14c;" horiz-adv-x="705" 
d="M214 736h272v-60h-272v60zM352 -14q-72 0 -130.5 24.5t-99 67t-62.5 99.5t-22 122q0 66 22 123t62.5 99.5t99 67t130.5 24.5q73 0 131 -24.5t99 -67t63 -99.5t22 -123q0 -65 -22 -122t-63 -99.5t-99 -67t-131 -24.5zM352 82q48 0 87.5 16.5t67 46t43 69t15.5 85.5
t-15.5 86.5t-43 69.5t-67 46t-87.5 17t-87 -17t-66.5 -46t-43 -69.5t-15.5 -86.5t15.5 -85.5t43 -69t66.5 -46t87 -16.5z" />
    <glyph glyph-name="omacron" unicode="&#x14d;" horiz-adv-x="445" 
d="M86 502h272v-60h-272v60zM416 171q0 -41 -15.5 -74t-41.5 -56.5t-61 -36t-75 -12.5t-75 12.5t-61.5 36t-41.5 56.5t-15 74q0 42 15 75.5t41.5 57.5t61.5 37t75 13t75 -13t61 -37t41.5 -57.5t15.5 -75.5zM223 70q42 0 69.5 27.5t27.5 74.5q0 48 -27.5 76t-69.5 28
t-69.5 -28t-27.5 -76q0 -47 27.5 -74.5t69.5 -27.5z" />
    <glyph glyph-name="Ohungarumlaut" unicode="&#x150;" horiz-adv-x="705" 
d="M297 637h-62v16l38 142h102v-16zM464 637h-62v16l38 142h102v-16zM352 -14q-72 0 -130.5 24.5t-99 67t-62.5 99.5t-22 122q0 66 22 123t62.5 99.5t99 67t130.5 24.5q73 0 131 -24.5t99 -67t63 -99.5t22 -123q0 -65 -22 -122t-63 -99.5t-99 -67t-131 -24.5zM352 82
q48 0 87.5 16.5t67 46t43 69t15.5 85.5t-15.5 86.5t-43 69.5t-67 46t-87.5 17t-87 -17t-66.5 -46t-43 -69.5t-15.5 -86.5t15.5 -85.5t43 -69t66.5 -46t87 -16.5z" />
    <glyph glyph-name="ohungarumlaut" unicode="&#x151;" horiz-adv-x="445" 
d="M171 419h-62v16l38 142h102v-16zM338 419h-62v16l38 142h102v-16zM416 171q0 -41 -15.5 -74t-41.5 -56.5t-61 -36t-75 -12.5t-75 12.5t-61.5 36t-41.5 56.5t-15 74q0 42 15 75.5t41.5 57.5t61.5 37t75 13t75 -13t61 -37t41.5 -57.5t15.5 -75.5zM223 70q42 0 69.5 27.5
t27.5 74.5q0 48 -27.5 76t-69.5 28t-69.5 -28t-27.5 -76q0 -47 27.5 -74.5t69.5 -27.5z" />
    <glyph glyph-name="OE" unicode="&#x152;" horiz-adv-x="1058" 
d="M350 -14q-72 0 -130.5 24.5t-99 67t-62.5 99.5t-22 122q0 66 22 123t62.5 99.5t99 67t130.5 24.5q67 0 121 -20.5t95 -57.5v65h455v-88h-356v-173h302v-84h-302v-167h356v-88h-455v64q-41 -37 -95 -57.5t-121 -20.5zM350 82q48 0 87.5 16.5t67 46t43 69t15.5 85.5
t-15.5 86.5t-43 69.5t-67 46t-87.5 17t-87 -17t-66.5 -46t-43 -69.5t-15.5 -86.5t15.5 -85.5t43 -69t66.5 -46t87 -16.5z" />
    <glyph glyph-name="oe" unicode="&#x153;" horiz-adv-x="707" 
d="M653 30q-14 -11 -33 -20q-17 -8 -41.5 -14t-57.5 -6q-50 0 -88.5 15.5t-64.5 43.5q-27 -28 -64.5 -42.5t-80.5 -14.5q-40 0 -75 12.5t-61.5 36t-41.5 56.5t-15 74q0 42 15 75.5t41.5 57.5t61.5 37t75 13q43 0 80 -15t64 -43q25 27 60 42.5t80 15.5q40 0 72.5 -13
t54.5 -36.5t34 -55.5t12 -71v-24h-263q6 -45 36 -66t72 -21q23 0 41 4t30 9q14 5 25 13zM223 70q42 0 69.5 27.5t27.5 74.5q0 48 -27.5 76t-69.5 28t-69.5 -28t-27.5 -76q0 -47 27.5 -74.5t69.5 -27.5zM505 281q-33 0 -55.5 -18.5t-30.5 -53.5h168q-5 31 -26 51.5t-56 20.5z
" />
    <glyph glyph-name="Racute" unicode="&#x154;" horiz-adv-x="636" 
d="M324 638h-62v16l38 142h114v-16zM78 600h260q114 0 178.5 -52.5t64.5 -150.5q0 -71 -34 -117t-91 -69v-6l149 -191v-14h-110l-147 190h-171v-190h-99v600zM479 393q0 60 -39 89.5t-105 29.5h-158v-236h164q63 0 100.5 28.5t37.5 88.5z" />
    <glyph glyph-name="racute" unicode="&#x155;" horiz-adv-x="309" 
d="M177 419h-62v16l38 142h114v-16zM273 250q-5 3 -12 6q-6 2 -14.5 4t-19.5 2q-29 0 -52 -20.5t-23 -52.5v-189h-98v346h63l13 -48h4q14 20 38.5 35.5t62.5 15.5q19 0 32.5 -3.5t22.5 -7.5q11 -4 18 -10z" />
    <glyph glyph-name="uni0156" unicode="&#x156;" horiz-adv-x="636" 
d="M257 -97q0 26 17 43.5t49 17.5q31 0 49.5 -19.5t18.5 -49.5q-1 -34 -23 -71l-28 -48h-67l26 42q3 5 6.5 9t5.5 7q3 4 5 6v3q-29 2 -44 19t-15 41zM78 600h260q114 0 178.5 -52.5t64.5 -150.5q0 -71 -34 -117t-91 -69v-6l149 -191v-14h-110l-147 190h-171v-190h-99v600z
M479 393q0 60 -39 89.5t-105 29.5h-158v-236h164q63 0 100.5 28.5t37.5 88.5z" />
    <glyph glyph-name="uni0157" unicode="&#x157;" horiz-adv-x="309" 
d="M39 -97q0 26 17 43.5t49 17.5q31 0 49.5 -19.5t18.5 -49.5q-1 -34 -23 -71l-28 -48h-67l26 42q3 5 6.5 9t5.5 7q3 4 5 6v3q-29 2 -44 19t-15 41zM273 250q-5 3 -12 6q-6 2 -14.5 4t-19.5 2q-29 0 -52 -20.5t-23 -52.5v-189h-98v346h63l13 -48h4q14 20 38.5 35.5
t62.5 15.5q19 0 32.5 -3.5t22.5 -7.5q11 -4 18 -10z" />
    <glyph glyph-name="Rcaron" unicode="&#x158;" horiz-adv-x="636" 
d="M387 800h63v-16l-95 -142h-104l-95 142v16h63l85 -92zM78 600h260q114 0 178.5 -52.5t64.5 -150.5q0 -71 -34 -117t-91 -69v-6l149 -191v-14h-110l-147 190h-171v-190h-99v600zM479 393q0 60 -39 89.5t-105 29.5h-158v-236h164q63 0 100.5 28.5t37.5 88.5z" />
    <glyph glyph-name="rcaron" unicode="&#x159;" horiz-adv-x="309" 
d="M259 577h63v-16l-95 -142h-104l-95 142v16h63l85 -92zM273 250q-5 3 -12 6q-6 2 -14.5 4t-19.5 2q-29 0 -52 -20.5t-23 -52.5v-189h-98v346h63l13 -48h4q14 20 38.5 35.5t62.5 15.5q19 0 32.5 -3.5t22.5 -7.5q11 -4 18 -10z" />
    <glyph glyph-name="Sacute" unicode="&#x15a;" horiz-adv-x="541" 
d="M300 638h-62v16l38 142h114v-16zM91 136q22 -17 49 -29q23 -11 56 -20t74 -9q67 0 96.5 23.5t29.5 59.5q0 17 -6.5 30.5t-23 25.5t-45 23t-71.5 23q-53 15 -92 31.5t-65 37.5t-38.5 48t-12.5 62q0 79 59 125t170 46q58 0 100 -9.5t69 -20.5q32 -13 52 -30l-54 -81
q-18 13 -44 24q-22 9 -53 17t-70 8q-57 0 -89 -19.5t-32 -55.5q0 -15 7 -27t24 -22.5t44.5 -20.5t68.5 -21q57 -15 97 -33.5t65.5 -41t37.5 -50t12 -62.5q0 -38 -14 -71.5t-42.5 -58t-72.5 -38.5t-105 -14q-60 0 -104 11.5t-73 25.5q-34 17 -58 38z" />
    <glyph glyph-name="sacute" unicode="&#x15b;" horiz-adv-x="380" 
d="M217 419h-62v16l38 142h114v-16zM60 98q17 -10 36 -17q17 -7 38 -12t46 -5q32 0 49 9.5t17 26.5q0 15 -15.5 23t-39.5 14.5t-51 13t-51 18t-39.5 30t-15.5 49.5q0 45 36.5 75.5t116.5 30.5q38 0 66.5 -5t48.5 -10q23 -6 39 -14l-31 -72q-12 8 -29 14q-14 5 -35 9.5
t-48 4.5q-29 0 -45.5 -7.5t-16.5 -25.5q0 -14 16 -22t39.5 -14t51.5 -12.5t51.5 -18t39.5 -31t16 -50.5q0 -45 -38.5 -76.5t-123.5 -31.5q-41 0 -70.5 5.5t-49.5 13.5q-23 9 -38 20z" />
    <glyph glyph-name="Scedilla" unicode="&#x15e;" horiz-adv-x="541" 
d="M225 -48l17 35q-53 3 -91 15t-64 25q-30 15 -50 34l54 75q22 -17 49 -29q23 -11 56 -20t74 -9q67 0 96.5 23.5t29.5 59.5q0 17 -6.5 30.5t-23 25.5t-45 23t-71.5 23q-53 15 -92 31.5t-65 37.5t-38.5 48t-12.5 62q0 79 59 125t170 46q58 0 100 -9.5t69 -20.5
q32 -13 52 -30l-54 -81q-18 13 -44 24q-22 9 -53 17t-70 8q-57 0 -89 -19.5t-32 -55.5q0 -15 7 -27t24 -22.5t44.5 -20.5t68.5 -21q57 -15 97 -33.5t65.5 -41t37.5 -50t12 -62.5q0 -37 -12.5 -69t-39 -56t-67 -39t-95.5 -17l-7 -17q28 0 47 -16t19 -48t-21.5 -52.5
t-63.5 -20.5q-21 0 -36.5 5t-25.5 11q-11 7 -19 16l21 36q6 -7 15 -11q8 -5 18.5 -8t24.5 -3q38 0 38 29q0 14 -10 21.5t-26 7.5q-6 0 -10 -1t-7 -2l-6 -3z" />
    <glyph glyph-name="scedilla" unicode="&#x15f;" horiz-adv-x="380" 
d="M141 -48l20 41q-34 2 -58.5 8t-40.5 13q-19 8 -32 17l30 67q17 -10 36 -17q17 -7 38 -12t46 -5q32 0 49 9.5t17 26.5q0 15 -15.5 23t-39.5 14.5t-51 13t-51 18t-39.5 30t-15.5 49.5q0 45 36.5 75.5t116.5 30.5q38 0 66.5 -5t48.5 -10q23 -6 39 -14l-31 -72q-12 8 -29 14
q-14 5 -35 9.5t-48 4.5q-29 0 -45.5 -7.5t-16.5 -25.5q0 -14 16 -22t39.5 -14t51.5 -12.5t51.5 -18t39.5 -31t16 -50.5q0 -42 -33 -72t-106 -35l-10 -23q28 0 47 -16t19 -48t-21.5 -52.5t-63.5 -20.5q-21 0 -36.5 5t-25.5 11q-11 7 -19 16l21 36q6 -7 15 -11q8 -5 18.5 -8
t24.5 -3q38 0 38 29q0 14 -10 21.5t-26 7.5q-6 0 -10 -1t-7 -2l-6 -3z" />
    <glyph glyph-name="Scaron" unicode="&#x160;" horiz-adv-x="541" 
d="M352 796h63v-16l-95 -142h-104l-95 142v16h63l85 -92zM91 136q22 -17 49 -29q23 -11 56 -20t74 -9q67 0 96.5 23.5t29.5 59.5q0 17 -6.5 30.5t-23 25.5t-45 23t-71.5 23q-53 15 -92 31.5t-65 37.5t-38.5 48t-12.5 62q0 79 59 125t170 46q58 0 100 -9.5t69 -20.5
q32 -13 52 -30l-54 -81q-18 13 -44 24q-22 9 -53 17t-70 8q-57 0 -89 -19.5t-32 -55.5q0 -15 7 -27t24 -22.5t44.5 -20.5t68.5 -21q57 -15 97 -33.5t65.5 -41t37.5 -50t12 -62.5q0 -38 -14 -71.5t-42.5 -58t-72.5 -38.5t-105 -14q-60 0 -104 11.5t-73 25.5q-34 17 -58 38z
" />
    <glyph glyph-name="scaron" unicode="&#x161;" horiz-adv-x="380" 
d="M273 577h63v-16l-95 -142h-104l-95 142v16h63l85 -92zM60 98q17 -10 36 -17q17 -7 38 -12t46 -5q32 0 49 9.5t17 26.5q0 15 -15.5 23t-39.5 14.5t-51 13t-51 18t-39.5 30t-15.5 49.5q0 45 36.5 75.5t116.5 30.5q38 0 66.5 -5t48.5 -10q23 -6 39 -14l-31 -72q-12 8 -29 14
q-14 5 -35 9.5t-48 4.5q-29 0 -45.5 -7.5t-16.5 -25.5q0 -14 16 -22t39.5 -14t51.5 -12.5t51.5 -18t39.5 -31t16 -50.5q0 -45 -38.5 -76.5t-123.5 -31.5q-41 0 -70.5 5.5t-49.5 13.5q-23 9 -38 20z" />
    <glyph glyph-name="uni0162" unicode="&#x162;" horiz-adv-x="532" 
d="M197 -97q0 26 17 43.5t49 17.5q31 0 49.5 -19.5t18.5 -49.5q-1 -34 -23 -71l-28 -48h-67l26 42q3 5 6.5 9t5.5 7q3 4 5 6v3q-29 2 -44 19t-15 41zM14 600h503v-88h-202v-512h-99v512h-202v88z" />
    <glyph glyph-name="uni0163" unicode="&#x163;" horiz-adv-x="328" 
d="M107 -97q0 26 17 43.5t49 17.5q31 0 49.5 -19.5t18.5 -49.5q-1 -34 -23 -71l-28 -48h-67l26 42q3 5 6.5 9t5.5 7q3 4 5 6v3q-29 2 -44 19t-15 41zM81 346v104h98v-104h121v-78h-121v-124q0 -36 15 -52.5t44 -16.5q10 0 18 2t14 4q7 3 13 7l32 -67q-10 -9 -23 -15
q-11 -5 -28.5 -9.5t-40.5 -4.5q-67 0 -104.5 38t-37.5 110v128h-65v78h65z" />
    <glyph glyph-name="Tcaron" unicode="&#x164;" horiz-adv-x="532" 
d="M350 800h63v-16l-95 -142h-104l-95 142v16h63l85 -92zM14 600h503v-88h-202v-512h-99v512h-202v88z" />
    <glyph glyph-name="tcaron" unicode="&#x165;" horiz-adv-x="328" 
d="M250 580q0 26 17 43.5t49 17.5q31 0 49.5 -19.5t18.5 -49.5q-1 -34 -23 -71l-28 -48h-67l26 42q3 5 6.5 9t5.5 7q3 4 5 6v3q-29 2 -44 19t-15 41zM81 346v104h98v-104h121v-78h-121v-124q0 -36 15 -52.5t44 -16.5q10 0 18 2t14 4q7 3 13 7l32 -67q-10 -9 -23 -15
q-11 -5 -28.5 -9.5t-40.5 -4.5q-67 0 -104.5 38t-37.5 110v128h-65v78h65z" />
    <glyph glyph-name="Tbar" unicode="&#x166;" horiz-adv-x="536" 
d="M16 600h503v-88h-202v-176h95v-59h-95v-277h-99v277h-94v59h94v176h-202v88z" />
    <glyph glyph-name="tbar" unicode="&#x167;" horiz-adv-x="332" 
d="M83 346v104h98v-104h121v-78h-121v-53h99v-57h-99v-14q0 -36 15 -52.5t44 -16.5q10 0 18 2t14 4q7 3 13 7l32 -67q-10 -9 -23 -15q-11 -5 -28.5 -9.5t-40.5 -4.5q-67 0 -104.5 38t-37.5 110v18h-62v57h62v53h-65v78h65z" />
    <glyph glyph-name="Utilde" unicode="&#x168;" 
d="M331 -14q-61 0 -109.5 20t-82.5 55.5t-52 84.5t-18 108v346h99v-346q0 -36 10 -68t30.5 -55t51 -36.5t71.5 -13.5t71 13.5t50 36.5t30 55t10 68v346h99v-346q0 -59 -17.5 -108t-50.5 -84.5t-81.5 -55.5t-110.5 -20zM400 685q-21 0 -38.5 6.5t-32.5 15t-29 15t-27 6.5
q-17 0 -25 -8.5t-10 -22.5l-2 -14l-68 6l3 29q4 36 26 60.5t64 24.5q21 0 38.5 -6.5t32.5 -15t28 -15t27 -6.5q18 0 25.5 8.5t10.5 22.5l3 14l69 -6l-4 -29q-7 -36 -28.5 -60.5t-62.5 -24.5z" />
    <glyph glyph-name="utilde" unicode="&#x169;" horiz-adv-x="457" 
d="M405 0h-66l-17 47h-4q-4 -8 -12.5 -17.5t-23 -17.5t-34.5 -14t-48 -6q-72 0 -112.5 41.5t-40.5 111.5v201h98v-187q0 -38 19.5 -62t58.5 -24q40 0 62 22.5t22 48.5v202h98v-346zM304 434q-21 0 -38.5 6.5t-32.5 15t-29 15t-27 6.5q-17 0 -25 -8.5t-10 -22.5l-2 -14l-68 6
l3 29q4 36 26 60.5t64 24.5q21 0 38.5 -6.5t32.5 -15t28 -15t27 -6.5q18 0 25.5 8.5t10.5 22.5l3 14l69 -6l-4 -29q-7 -36 -28.5 -60.5t-62.5 -24.5z" />
    <glyph glyph-name="Umacron" unicode="&#x16a;" 
d="M331 -14q-61 0 -109.5 20t-82.5 55.5t-52 84.5t-18 108v346h99v-346q0 -36 10 -68t30.5 -55t51 -36.5t71.5 -13.5t71 13.5t50 36.5t30 55t10 68v346h99v-346q0 -59 -17.5 -108t-50.5 -84.5t-81.5 -55.5t-110.5 -20zM194 733h272v-60h-272v60z" />
    <glyph glyph-name="umacron" unicode="&#x16b;" horiz-adv-x="457" 
d="M405 0h-66l-17 47h-4q-4 -8 -12.5 -17.5t-23 -17.5t-34.5 -14t-48 -6q-72 0 -112.5 41.5t-40.5 111.5v201h98v-187q0 -38 19.5 -62t58.5 -24q40 0 62 22.5t22 48.5v202h98v-346zM93 502h272v-60h-272v60z" />
    <glyph glyph-name="Uring" unicode="&#x16e;" 
d="M331 631q-44 0 -73 28t-29 70t29 70t73 28q43 0 72 -28t29 -70t-29 -70t-72 -28zM370 729q0 18 -10.5 29t-28.5 11q-17 0 -28 -11t-11 -29q0 -17 11 -28t28 -11q18 0 28.5 11t10.5 28zM331 -14q-61 0 -109.5 20t-82.5 55.5t-52 84.5t-18 108v346h99v-346q0 -36 10 -68
t30.5 -55t51 -36.5t71.5 -13.5t71 13.5t50 36.5t30 55t10 68v346h99v-346q0 -59 -17.5 -108t-50.5 -84.5t-81.5 -55.5t-110.5 -20z" />
    <glyph glyph-name="uring" unicode="&#x16f;" horiz-adv-x="457" 
d="M227 423q-44 0 -73 28t-29 70t29 70t73 28q43 0 72 -28t29 -70t-29 -70t-72 -28zM266 521q0 18 -10.5 29t-28.5 11q-17 0 -28 -11t-11 -29q0 -17 11 -28t28 -11q18 0 28.5 11t10.5 28zM405 0h-66l-17 47h-4q-4 -8 -12.5 -17.5t-23 -17.5t-34.5 -14t-48 -6
q-72 0 -112.5 41.5t-40.5 111.5v201h98v-187q0 -38 19.5 -62t58.5 -24q40 0 62 22.5t22 48.5v202h98v-346z" />
    <glyph glyph-name="Uhungarumlaut" unicode="&#x170;" 
d="M331 -14q-61 0 -109.5 20t-82.5 55.5t-52 84.5t-18 108v346h99v-346q0 -36 10 -68t30.5 -55t51 -36.5t71.5 -13.5t71 13.5t50 36.5t30 55t10 68v346h99v-346q0 -59 -17.5 -108t-50.5 -84.5t-81.5 -55.5t-110.5 -20zM278 638h-62v16l38 142h102v-16zM445 638h-62v16
l38 142h102v-16z" />
    <glyph glyph-name="uhungarumlaut" unicode="&#x171;" horiz-adv-x="457" 
d="M405 0h-66l-17 47h-4q-4 -8 -12.5 -17.5t-23 -17.5t-34.5 -14t-48 -6q-72 0 -112.5 41.5t-40.5 111.5v201h98v-187q0 -38 19.5 -62t58.5 -24q40 0 62 22.5t22 48.5v202h98v-346zM176 419h-62v16l38 142h102v-16zM343 419h-62v16l38 142h102v-16z" />
    <glyph glyph-name="Uogonek" unicode="&#x172;" 
d="M409 -117q-7 -9 -18 -15q-9 -6 -22.5 -10.5t-30.5 -4.5q-39 0 -60 20.5t-21 52.5q0 21 9 36.5t22 26.5q-51 7 -92 29t-69 57t-43 80.5t-15 98.5v346h99v-346q0 -36 10 -68t30.5 -55t51 -36.5t71.5 -13.5t71 13.5t50 36.5t30 55t10 68v346h99v-346q0 -56 -16 -104t-47 -83
t-76 -56t-103 -24q-11 -6 -23 -17.5t-12 -31.5q0 -15 8.5 -24t25.5 -9q8 0 13 2t10 5q4 4 9 8z" />
    <glyph glyph-name="uogonek" unicode="&#x173;" horiz-adv-x="457" 
d="M405 0q-13 -5 -24 -13q-9 -7 -16.5 -17t-7.5 -24q0 -15 8.5 -24t25.5 -9q8 0 13 2t10 5q4 4 9 8l29 -37q-7 -9 -18 -15q-9 -6 -22.5 -10.5t-30.5 -4.5q-39 0 -60 20.5t-21 52.5q0 23 11.5 40t26.5 28l-16 45h-4q-4 -8 -12.5 -17.5t-23 -17.5t-34.5 -14t-48 -6
q-72 0 -112.5 41.5t-40.5 111.5v201h98v-187q0 -38 19.5 -62t58.5 -24q40 0 62 22.5t22 48.5v202h98v-346z" />
    <glyph glyph-name="Wcircumflex" unicode="&#x174;" horiz-adv-x="821" 
d="M410 734l-85 -92h-63v16l95 142h104l95 -142v-16h-63zM390 600h42l111 -347l19 -60h9l19 66l120 341h106l-229 -600h-48l-111 345l-15 60h-5l-16 -60l-113 -345h-46l-229 600h105l122 -341l18 -66h8l20 60z" />
    <glyph glyph-name="wcircumflex" unicode="&#x175;" horiz-adv-x="593" 
d="M299 511l-85 -92h-63v16l95 142h104l95 -142v-16h-63zM441 0h-68l-67 192q-6 16 -6 33h-5q0 -14 -7 -33l-66 -192h-68l-145 346h105l68 -201q2 -7 4.5 -14t2.5 -14h7q0 7 2 14l4 14l61 201h71l61 -201q2 -8 4 -14.5t2 -13.5h7q0 7 2 13.5t4 14.5l70 201h102z" />
    <glyph glyph-name="Ycircumflex" unicode="&#x176;" horiz-adv-x="555" 
d="M279 730l-85 -92h-63v16l95 142h104l95 -142v-16h-63zM442 600h114l-229 -371v-229h-99v229l-228 371h115l142 -235l16 -35h11l17 35z" />
    <glyph glyph-name="ycircumflex" unicode="&#x177;" horiz-adv-x="412" 
d="M156 -192h-104l109 220l-153 318h107l83 -194q3 -7 5.5 -15.5t3.5 -19.5h5q1 11 4 19.5t6 15.5l82 194h100zM214 511l-85 -92h-63v16l95 142h104l95 -142v-16h-63z" />
    <glyph glyph-name="Ydieresis" unicode="&#x178;" horiz-adv-x="555" 
d="M134 705q0 21 15.5 37t36.5 16t37 -16t16 -37t-16 -36.5t-37 -15.5t-36.5 15.5t-15.5 36.5zM318 705q0 21 15.5 37t36.5 16t37 -16t16 -37t-16 -36.5t-37 -15.5t-36.5 15.5t-15.5 36.5zM442 600h114l-229 -371v-229h-99v229l-228 371h115l142 -235l16 -35h11l17 35z" />
    <glyph glyph-name="Zacute" unicode="&#x179;" horiz-adv-x="548" 
d="M298 638h-62v16l38 142h114v-16zM28 26l332 486h-320v88h479v-26l-324 -486h319v-88h-486v26z" />
    <glyph glyph-name="zacute" unicode="&#x17a;" horiz-adv-x="388" 
d="M227 419h-62v16l38 142h114v-16zM33 0v43l185 224h-184v79h321v-38l-185 -229h185v-79h-322z" />
    <glyph glyph-name="Zdotaccent" unicode="&#x17b;" horiz-adv-x="548" 
d="M28 26l332 486h-320v88h479v-26l-324 -486h319v-88h-486v26zM213 730q0 27 18 45.5t45 18.5t45.5 -18.5t18.5 -45.5t-18.5 -45.5t-45.5 -18.5t-45 18.5t-18 45.5z" />
    <glyph glyph-name="zdotaccent" unicode="&#x17c;" horiz-adv-x="388" 
d="M33 0v43l185 224h-184v79h321v-38l-185 -229h185v-79h-322zM132 506q0 27 18 45.5t45 18.5t45.5 -18.5t18.5 -45.5t-18.5 -45.5t-45.5 -18.5t-45 18.5t-18 45.5z" />
    <glyph glyph-name="Zcaron" unicode="&#x17d;" horiz-adv-x="548" 
d="M356 795h63v-16l-95 -142h-104l-95 142v16h63l85 -92zM28 26l332 486h-320v88h479v-26l-324 -486h319v-88h-486v26z" />
    <glyph glyph-name="zcaron" unicode="&#x17e;" horiz-adv-x="388" 
d="M283 577h63v-16l-95 -142h-104l-95 142v16h63l85 -92zM33 0v43l185 224h-184v79h321v-38l-185 -229h185v-79h-322z" />
    <glyph glyph-name="uni01EA" unicode="&#x1ea;" horiz-adv-x="705" 
d="M499 -109q-7 -9 -18 -15q-9 -6 -22.5 -10.5t-30.5 -4.5q-39 0 -60 20.5t-21 52.5q0 17 5.5 29.5t14.5 23.5q-2 -1 -6.5 -1h-8.5q-72 0 -130.5 24.5t-99 67t-62.5 99.5t-22 122q0 66 22 123t62.5 99.5t99 67t130.5 24.5q73 0 131 -24.5t99 -67t63 -99.5t22 -123
q0 -53 -15 -101t-42.5 -87.5t-68 -68t-91.5 -42.5q-2 -1 -9.5 -4.5t-15.5 -10.5t-14.5 -16.5t-6.5 -22.5q0 -15 8.5 -24t25.5 -9q8 0 13 2t10 5q4 4 9 8zM352 82q48 0 87.5 16.5t67 46t43 69t15.5 85.5t-15.5 86.5t-43 69.5t-67 46t-87.5 17t-87 -17t-66.5 -46t-43 -69.5
t-15.5 -86.5t15.5 -85.5t43 -69t66.5 -46t87 -16.5z" />
    <glyph glyph-name="uni01EB" unicode="&#x1eb;" horiz-adv-x="445" 
d="M330 -109q-7 -9 -18 -15q-9 -6 -22.5 -10.5t-30.5 -4.5q-39 0 -60 20.5t-21 52.5q0 19 7.5 33.5t18.5 25.5q-37 3 -68.5 16.5t-55 36.5t-37 54.5t-13.5 70.5q0 42 15 75.5t41.5 57.5t61.5 37t75 13t75 -13t61 -37t41.5 -57.5t15.5 -75.5q0 -69 -40 -114t-101 -59
q-10 -5 -25 -17.5t-15 -34.5q0 -15 8.5 -24t25.5 -9q8 0 13 2t10 5q4 4 9 8zM223 70q42 0 69.5 27.5t27.5 74.5q0 48 -27.5 76t-69.5 28t-69.5 -28t-27.5 -76q0 -47 27.5 -74.5t69.5 -27.5z" />
    <glyph glyph-name="AEacute" unicode="&#x1fc;" horiz-adv-x="917" 
d="M647 638h-62v16l38 142h114v-16zM411 600h469v-88h-356v-174h302v-84h-302v-166h356v-88h-455v91h-257l-61 -91h-123zM222 172h203v277h-9z" />
    <glyph glyph-name="aeacute" unicode="&#x1fd;" horiz-adv-x="673" 
d="M375 419h-62v16l38 142h114v-16zM619 28q-15 -11 -36 -19q-18 -8 -44 -13.5t-61 -5.5q-45 0 -81 14t-61 40q-24 -23 -60.5 -37.5t-88.5 -14.5q-43 0 -73.5 9t-50 24t-28.5 35t-9 43q0 47 38 75.5t106 28.5q29 0 49 -4t33 -8.5t19 -9t8 -5.5h2v15q0 38 -23 59.5t-76 21.5
q-22 0 -39.5 -4t-31.5 -9q-16 -5 -29 -12l-29 72q18 8 41 15q20 6 46.5 11t59.5 5q50 0 84 -13t55 -37q25 23 58.5 36.5t74.5 13.5q40 0 72.5 -12.5t55 -36t34.5 -56t12 -71.5q0 -4 -0.5 -8t-0.5 -8v-9h-264q7 -44 36.5 -65t71.5 -21q23 0 41 4t31 9q15 5 26 13zM119 106
q0 -22 18 -36t58 -14q38 0 63 15t25 36q0 20 -25.5 33.5t-62.5 13.5q-40 0 -58 -13.5t-18 -34.5zM471 282q-34 0 -57.5 -18.5t-30.5 -56.5h171q-3 32 -24 53.5t-59 21.5z" />
    <glyph glyph-name="Oslashacute" unicode="&#x1fe;" horiz-adv-x="703" 
d="M352 -14q-63 0 -115 18.5t-91 50.5l-61 -59l-44 44l62 60q-32 41 -48.5 91.5t-16.5 107.5q0 66 22 123t62.5 99.5t99 67t130.5 24.5q63 0 114 -18t91 -50l53 52l44 -44l-54 -53q32 -41 49.5 -92t17.5 -109q0 -65 -22 -122t-63 -99.5t-99 -67t-131 -24.5zM352 82
q48 0 87.5 16.5t67 46t43 69t15.5 85.5q0 75 -38 130l-309 -303q26 -21 60 -32.5t74 -11.5zM140 299q0 -36 9 -68.5t27 -58.5l309 302q-26 21 -60 32.5t-73 11.5q-48 0 -87 -17t-66.5 -46t-43 -69.5t-15.5 -86.5zM381 638h-62v16l38 142h114v-16z" />
    <glyph glyph-name="oslashacute" unicode="&#x1ff;" horiz-adv-x="445" 
d="M417 171q0 -41 -15.5 -74t-41.5 -56.5t-61 -36t-75 -12.5q-33 0 -62.5 8.5t-54.5 24.5l-38 -38l-34 34l36 36q-40 45 -40 114q0 42 15 75.5t41.5 57.5t61.5 37t75 13q63 0 111 -31l42 42l34 -34l-39 -39q21 -23 33 -53.5t12 -67.5zM247 419h-62v16l38 142h114v-16z
M224 70q42 0 69.5 27.5t27.5 74.5q0 32 -14 57l-141 -142q25 -17 58 -17zM127 172q0 -28 11 -50l139 139q-11 7 -25 11t-28 4q-42 0 -69.5 -28t-27.5 -76z" />
    <glyph glyph-name="uni0218" unicode="&#x218;" horiz-adv-x="541" 
d="M216 -97q0 26 17 43.5t49 17.5q31 0 49.5 -19.5t18.5 -49.5q-1 -34 -23 -71l-28 -48h-67l26 42q3 5 6.5 9t5.5 7q3 4 5 6v3q-29 2 -44 19t-15 41zM91 136q22 -17 49 -29q23 -11 56 -20t74 -9q67 0 96.5 23.5t29.5 59.5q0 17 -6.5 30.5t-23 25.5t-45 23t-71.5 23
q-53 15 -92 31.5t-65 37.5t-38.5 48t-12.5 62q0 79 59 125t170 46q58 0 100 -9.5t69 -20.5q32 -13 52 -30l-54 -81q-18 13 -44 24q-22 9 -53 17t-70 8q-57 0 -89 -19.5t-32 -55.5q0 -15 7 -27t24 -22.5t44.5 -20.5t68.5 -21q57 -15 97 -33.5t65.5 -41t37.5 -50t12 -62.5
q0 -38 -14 -71.5t-42.5 -58t-72.5 -38.5t-105 -14q-60 0 -104 11.5t-73 25.5q-34 17 -58 38z" />
    <glyph glyph-name="uni0219" unicode="&#x219;" horiz-adv-x="380" 
d="M127 -97q0 26 17 43.5t49 17.5q31 0 49.5 -19.5t18.5 -49.5q-1 -34 -23 -71l-28 -48h-67l26 42q3 5 6.5 9t5.5 7q3 4 5 6v3q-29 2 -44 19t-15 41zM60 98q17 -10 36 -17q17 -7 38 -12t46 -5q32 0 49 9.5t17 26.5q0 15 -15.5 23t-39.5 14.5t-51 13t-51 18t-39.5 30
t-15.5 49.5q0 45 36.5 75.5t116.5 30.5q38 0 66.5 -5t48.5 -10q23 -6 39 -14l-31 -72q-12 8 -29 14q-14 5 -35 9.5t-48 4.5q-29 0 -45.5 -7.5t-16.5 -25.5q0 -14 16 -22t39.5 -14t51.5 -12.5t51.5 -18t39.5 -31t16 -50.5q0 -45 -38.5 -76.5t-123.5 -31.5q-41 0 -70.5 5.5
t-49.5 13.5q-23 9 -38 20z" />
    <glyph glyph-name="uni021A" unicode="&#x21a;" horiz-adv-x="532" 
d="M197 -97q0 26 17 43.5t49 17.5q31 0 49.5 -19.5t18.5 -49.5q-1 -34 -23 -71l-28 -48h-67l26 42q3 5 6.5 9t5.5 7q3 4 5 6v3q-29 2 -44 19t-15 41zM14 600h503v-88h-202v-512h-99v512h-202v88z" />
    <glyph glyph-name="uni021B" unicode="&#x21b;" horiz-adv-x="328" 
d="M107 -97q0 26 17 43.5t49 17.5q31 0 49.5 -19.5t18.5 -49.5q-1 -34 -23 -71l-28 -48h-67l26 42q3 5 6.5 9t5.5 7q3 4 5 6v3q-29 2 -44 19t-15 41zM81 346v104h98v-104h121v-78h-121v-124q0 -36 15 -52.5t44 -16.5q10 0 18 2t14 4q7 3 13 7l32 -67q-10 -9 -23 -15
q-11 -5 -28.5 -9.5t-40.5 -4.5q-67 0 -104.5 38t-37.5 110v128h-65v78h65z" />
    <glyph glyph-name="uni0237" unicode="&#x237;" horiz-adv-x="204" 
d="M-20 -106q5 -3 11 -5q5 -2 11 -3t14 -1q18 0 27 11.5t9 37.5v412h99v-422q0 -58 -28 -91.5t-88 -33.5q-19 0 -33.5 3t-25.5 8q-12 4 -22 11z" />
    <glyph glyph-name="circumflex" unicode="&#x2c6;" horiz-adv-x="329" 
d="M171 511l-85 -92h-63v16l95 142h104l95 -142v-16h-63z" />
    <glyph glyph-name="caron" unicode="&#x2c7;" horiz-adv-x="341" 
d="M254 577h63v-16l-95 -142h-104l-95 142v16h63l85 -92z" />
    <glyph glyph-name="breve" unicode="&#x2d8;" horiz-adv-x="353" 
d="M312 580q0 -27 -9.5 -52t-27.5 -44t-44 -30.5t-59 -11.5t-59 11.5t-44 30.5t-27.5 44t-9.5 52h77q0 -32 17.5 -50t45.5 -18q27 0 45 18.5t18 49.5h77z" />
    <glyph glyph-name="dotaccent" unicode="&#x2d9;" horiz-adv-x="258" 
d="M65 506q0 27 18 45.5t45 18.5t45.5 -18.5t18.5 -45.5t-18.5 -45.5t-45.5 -18.5t-45 18.5t-18 45.5z" />
    <glyph glyph-name="ring" unicode="&#x2da;" horiz-adv-x="273" 
d="M136 423q-44 0 -73 28t-29 70t29 70t73 28q43 0 72 -28t29 -70t-29 -70t-72 -28zM175 521q0 18 -10.5 29t-28.5 11q-17 0 -28 -11t-11 -29q0 -17 11 -28t28 -11q18 0 28.5 11t10.5 28z" />
    <glyph glyph-name="ogonek" unicode="&#x2db;" horiz-adv-x="201" 
d="M183 -109q-7 -9 -18 -15q-9 -6 -22.5 -10.5t-30.5 -4.5q-39 0 -60 20.5t-21 52.5q0 27 14.5 45.5t32.5 29.5q21 13 48 21l10 -30q-13 -5 -24 -13q-9 -7 -16.5 -17t-7.5 -24q0 -15 8.5 -24t25.5 -9q8 0 13 2t10 5q4 4 9 8z" />
    <glyph glyph-name="tilde" unicode="&#x2dc;" horiz-adv-x="430" 
d="M282 434q-21 0 -38.5 6.5t-32.5 15t-29 15t-27 6.5q-17 0 -25 -8.5t-10 -22.5l-2 -14l-68 6l3 29q4 36 26 60.5t64 24.5q21 0 38.5 -6.5t32.5 -15t28 -15t27 -6.5q18 0 25.5 8.5t10.5 22.5l3 14l69 -6l-4 -29q-7 -36 -28.5 -60.5t-62.5 -24.5z" />
    <glyph glyph-name="hungarumlaut" unicode="&#x2dd;" horiz-adv-x="415" 
d="M107 419h-62v16l38 142h102v-16zM274 419h-62v16l38 142h102v-16z" />
    <glyph glyph-name="uni0326" unicode="&#x326;" horiz-adv-x="214" 
d="M43 -97q0 26 17 43.5t49 17.5q31 0 49.5 -19.5t18.5 -49.5q-1 -34 -23 -71l-28 -48h-67l26 42q3 5 6.5 9t5.5 7q3 4 5 6v3q-29 2 -44 19t-15 41z" />
    <glyph glyph-name="Wgrave" unicode="&#x1e80;" horiz-adv-x="821" 
d="M287 780v16h115l38 -142v-16h-63zM390 600h42l111 -347l19 -60h9l19 66l120 341h106l-229 -600h-48l-111 345l-15 60h-5l-16 -60l-113 -345h-46l-229 600h105l122 -341l18 -66h8l20 60z" />
    <glyph glyph-name="wgrave" unicode="&#x1e81;" horiz-adv-x="593" 
d="M441 0h-68l-67 192q-6 16 -6 33h-5q0 -14 -7 -33l-66 -192h-68l-145 346h105l68 -201q2 -7 4.5 -14t2.5 -14h7q0 7 2 14l4 14l61 201h71l61 -201q2 -8 4 -14.5t2 -13.5h7q0 7 2 13.5t4 14.5l70 201h102zM175 561v16h115l38 -142v-16h-63z" />
    <glyph glyph-name="Wacute" unicode="&#x1e82;" horiz-adv-x="821" 
d="M444 638h-62v16l38 142h114v-16zM390 600h42l111 -347l19 -60h9l19 66l120 341h106l-229 -600h-48l-111 345l-15 60h-5l-16 -60l-113 -345h-46l-229 600h105l122 -341l18 -66h8l20 60z" />
    <glyph glyph-name="wacute" unicode="&#x1e83;" horiz-adv-x="593" 
d="M332 419h-62v16l38 142h114v-16zM441 0h-68l-67 192q-6 16 -6 33h-5q0 -14 -7 -33l-66 -192h-68l-145 346h105l68 -201q2 -7 4.5 -14t2.5 -14h7q0 7 2 14l4 14l61 201h71l61 -201q2 -8 4 -14.5t2 -13.5h7q0 7 2 13.5t4 14.5l70 201h102z" />
    <glyph glyph-name="Wdieresis" unicode="&#x1e84;" horiz-adv-x="821" 
d="M265 709q0 21 15.5 37t36.5 16t37 -16t16 -37t-16 -36.5t-37 -15.5t-36.5 15.5t-15.5 36.5zM449 709q0 21 15.5 37t36.5 16t37 -16t16 -37t-16 -36.5t-37 -15.5t-36.5 15.5t-15.5 36.5zM390 600h42l111 -347l19 -60h9l19 66l120 341h106l-229 -600h-48l-111 345l-15 60
h-5l-16 -60l-113 -345h-46l-229 600h105l122 -341l18 -66h8l20 60z" />
    <glyph glyph-name="wdieresis" unicode="&#x1e85;" horiz-adv-x="593" 
d="M154 483q0 21 15.5 37t36.5 16t37 -16t16 -37t-16 -36.5t-37 -15.5t-36.5 15.5t-15.5 36.5zM338 483q0 21 15.5 37t36.5 16t37 -16t16 -37t-16 -36.5t-37 -15.5t-36.5 15.5t-15.5 36.5zM441 0h-68l-67 192q-6 16 -6 33h-5q0 -14 -7 -33l-66 -192h-68l-145 346h105
l68 -201q2 -7 4.5 -14t2.5 -14h7q0 7 2 14l4 14l61 201h71l61 -201q2 -8 4 -14.5t2 -13.5h7q0 7 2 13.5t4 14.5l70 201h102z" />
    <glyph glyph-name="Ygrave" unicode="&#x1ef2;" horiz-adv-x="555" 
d="M442 600h114l-229 -371v-229h-99v229l-228 371h115l142 -235l16 -35h11l17 35zM154 781v16h115l38 -142v-16h-63z" />
    <glyph glyph-name="ygrave" unicode="&#x1ef3;" horiz-adv-x="412" 
d="M156 -192h-104l109 220l-153 318h107l83 -194q3 -7 5.5 -15.5t3.5 -19.5h5q1 11 4 19.5t6 15.5l82 194h100zM88 561v16h115l38 -142v-16h-63z" />
    <glyph glyph-name="uni1EF8" unicode="&#x1ef8;" horiz-adv-x="555" 
d="M442 600h114l-229 -371v-229h-99v229l-228 371h115l142 -235l16 -35h11l17 35zM354 641q-21 0 -38.5 6.5t-32.5 15t-29 15t-27 6.5q-17 0 -25 -8.5t-10 -22.5l-2 -14l-68 6l3 29q4 36 26 60.5t64 24.5q21 0 38.5 -6.5t32.5 -15t28 -15t27 -6.5q18 0 25.5 8.5t10.5 22.5
l3 14l69 -6l-4 -29q-7 -36 -28.5 -60.5t-62.5 -24.5z" />
    <glyph glyph-name="uni1EF9" unicode="&#x1ef9;" horiz-adv-x="411" 
d="M156 -192h-104l109 220l-153 318h107l83 -194q3 -7 5.5 -15.5t3.5 -19.5h5q1 11 4 19.5t6 15.5l82 194h100zM281 434q-21 0 -38.5 6.5t-32.5 15t-29 15t-27 6.5q-17 0 -25 -8.5t-10 -22.5l-2 -14l-68 6l3 29q4 36 26 60.5t64 24.5q21 0 38.5 -6.5t32.5 -15t28 -15
t27 -6.5q18 0 25.5 8.5t10.5 22.5l3 14l69 -6l-4 -29q-7 -36 -28.5 -60.5t-62.5 -24.5z" />
    <glyph glyph-name="endash" unicode="&#x2013;" horiz-adv-x="459" 
d="M48 328h363v-81h-363v81z" />
    <glyph glyph-name="emdash" unicode="&#x2014;" horiz-adv-x="716" 
d="M48 328h620v-81h-620v81z" />
    <glyph glyph-name="quoteleft" unicode="&#x2018;" horiz-adv-x="195" 
d="M154 505q0 -26 -17 -43t-43 -17t-43.5 17.5t-17.5 43.5q0 25 6 43t17 37l38 67h65l-35 -62q-4 -6 -7 -10t-5 -7q-3 -4 -6 -5v-5q21 -5 34.5 -20.5t13.5 -38.5z" />
    <glyph glyph-name="quoteright" unicode="&#x2019;" horiz-adv-x="194" 
d="M44 601q0 26 17 43t43 17t43.5 -17.5t17.5 -43.5q0 -25 -6 -43t-17 -37l-38 -67h-65l35 62q3 5 6.5 9.5t5.5 7.5q3 4 6 5v5q-21 5 -34.5 20.5t-13.5 38.5z" />
    <glyph glyph-name="quotesinglbase" unicode="&#x201a;" horiz-adv-x="172" 
d="M25 52q0 26 17 43t43 17t43.5 -17.5t17.5 -43.5q0 -25 -6 -43t-17 -37l-38 -67h-65l35 62q3 5 6.5 9.5t5.5 7.5q3 4 6 5v5q-21 5 -34.5 20.5t-13.5 38.5z" />
    <glyph glyph-name="quotedblleft" unicode="&#x201c;" horiz-adv-x="384" 
d="M154 506q0 -26 -17 -43t-43 -17t-43.5 17.5t-17.5 43.5q0 25 6 43t17 37l38 67h65l-35 -62q-4 -6 -7 -10t-5 -7q-3 -4 -6 -5v-5q21 -5 34.5 -20.5t13.5 -38.5zM343 506q0 -26 -17 -43t-43 -17t-43.5 17.5t-17.5 43.5q0 25 6 43t17 37l38 67h65l-35 -62q-4 -6 -7 -10
t-5 -7q-3 -4 -6 -5v-5q21 -5 34.5 -20.5t13.5 -38.5z" />
    <glyph glyph-name="quotedblright" unicode="&#x201d;" horiz-adv-x="377" 
d="M41 601q0 26 17 43t43 17t43.5 -17.5t17.5 -43.5q0 -25 -6 -43t-17 -37l-38 -67h-65l35 62q3 5 6.5 9.5t5.5 7.5q3 4 6 5v5q-21 5 -34.5 20.5t-13.5 38.5zM224 601q0 26 17 43t43 17t43.5 -17.5t17.5 -43.5q0 -25 -6 -43t-17 -37l-38 -67h-65l35 62q3 5 6.5 9.5t5.5 7.5
q3 4 6 5v5q-21 5 -34.5 20.5t-13.5 38.5z" />
    <glyph glyph-name="quotedblbase" unicode="&#x201e;" horiz-adv-x="399" 
d="M25 52q0 26 17 43t43 17t43.5 -17.5t17.5 -43.5q0 -25 -6 -43t-17 -37l-38 -67h-65l35 62q3 5 6.5 9.5t5.5 7.5q3 4 6 5v5q-21 5 -34.5 20.5t-13.5 38.5zM252 52q0 26 17 43t43 17t43.5 -17.5t17.5 -43.5q0 -25 -6 -43t-17 -37l-38 -67h-65l35 62q3 5 6.5 9.5t5.5 7.5
q3 4 6 5v5q-21 5 -34.5 20.5t-13.5 38.5z" />
    <glyph glyph-name="dagger" unicode="&#x2020;" horiz-adv-x="447" 
d="M31 361h152v239h82v-239h151v-81h-151l-8 -472h-66l-8 472h-152v81z" />
    <glyph glyph-name="daggerdbl" unicode="&#x2021;" horiz-adv-x="483" 
d="M49 432h152v168h82v-168h151v-80h-151v-211h151v-81h-151l-8 -252h-65l-9 252h-152v81h152v211h-152v80z" />
    <glyph glyph-name="bullet" unicode="&#x2022;" horiz-adv-x="308" 
d="M70 173q0 17 6.5 32.5t18 27t26.5 18.5t33 7q35 0 60 -25t25 -60q0 -18 -7 -33t-18.5 -26.5t-27 -18t-32.5 -6.5q-35 0 -59.5 24.5t-24.5 59.5z" />
    <glyph glyph-name="ellipsis" unicode="&#x2026;" horiz-adv-x="588" 
d="M26 55q0 27 18 45.5t45 18.5q26 0 45 -18.5t19 -45.5t-19 -45.5t-45 -18.5q-27 0 -45 18.5t-18 45.5zM231 55q0 27 18 45.5t45 18.5t45.5 -18.5t18.5 -45.5t-18.5 -45.5t-45.5 -18.5t-45 18.5t-18 45.5zM436 55q0 27 18.5 45.5t44.5 18.5q27 0 45.5 -18.5t18.5 -45.5
t-18.5 -45.5t-45.5 -18.5q-26 0 -44.5 18.5t-18.5 45.5z" />
    <glyph glyph-name="perthousand" unicode="&#x2030;" horiz-adv-x="990" 
d="M171 613q33 0 58.5 -12t43 -32.5t26.5 -47.5t9 -57t-9 -57t-26.5 -47.5t-43 -33t-58.5 -12.5t-58.5 12.5t-43 33t-26.5 47.5t-9 57t9 57t26.5 47.5t43 32.5t58.5 12zM171 379q30 0 45.5 23t15.5 62t-15.5 62t-45.5 23q-31 0 -46 -23t-15 -62t15 -62t46 -23zM598 563
l-469 -564l-55 45l468 564zM502 291q33 0 58.5 -12t43 -33t26.5 -48t9 -57q0 -29 -9 -56t-26.5 -47.5t-43 -33t-58.5 -12.5t-58.5 12.5t-43 33t-27 47.5t-9.5 56q0 30 9.5 57t27 48t43 33t58.5 12zM502 227q-30 0 -46 -23t-16 -63q0 -38 16 -61t46 -23t45.5 23t15.5 61
q0 40 -15.5 63t-45.5 23zM822 227q-30 0 -46 -23t-16 -63q0 -38 16 -61t46 -23t45.5 23t15.5 61q0 40 -15.5 63t-45.5 23zM822 291q33 0 58.5 -12t43 -33t26.5 -48t9 -57q0 -29 -9 -56t-26.5 -47.5t-43 -33t-58.5 -12.5t-58.5 12.5t-43 33t-26.5 47.5t-9 56q0 30 9 57
t26.5 48t43 33t58.5 12z" />
    <glyph glyph-name="guilsinglleft" unicode="&#x2039;" horiz-adv-x="253" 
d="M32 181l106 155h83v-8l-103 -152v-7l103 -154v-8h-83l-106 155v19z" />
    <glyph glyph-name="guilsinglright" unicode="&#x203a;" horiz-adv-x="253" 
d="M221 162l-106 -155h-83v8l103 154v7l-103 152v8h83l106 -155v-19z" />
    <glyph glyph-name="fraction" unicode="&#x2044;" horiz-adv-x="180" 
d="M-169 41l469 564l50 -39l-470 -564z" />
    <glyph glyph-name="Euro" unicode="&#x20ac;" horiz-adv-x="593" 
d="M416 193h-196q19 -49 58 -78t100 -29q29 0 50.5 7.5t36.5 17.5q18 11 31 26l58 -75q-17 -20 -43 -36q-22 -14 -55.5 -25t-79.5 -11q-55 0 -98.5 15.5t-76 43t-54 64.5t-33.5 80h-75v71h62q-1 5 -1 10q-1 5 -1 11.5v14.5v13t1 11q0 5 1 9h-62v71h74q11 44 33 81.5
t54.5 65.5t76 43.5t99.5 15.5q46 0 79.5 -11t55.5 -25q26 -16 43 -36l-58 -75q-13 14 -31 25q-15 10 -36.5 18t-50.5 8q-62 0 -101.5 -30t-57.5 -80h197v-71h-213q-1 -4 -1 -9q-1 -5 -1 -11v-13v-14.5t1 -11.5q0 -5 1 -10h213v-71z" />
    <glyph glyph-name="trademark" unicode="&#x2122;" horiz-adv-x="738" 
d="M349 281v319h17l143 -135q7 6 28 25.5t45 42t45 42t27 25.5h17v-319h-65v194l-90 -86h-13l-89 86v-194h-65zM291 543h-96v-262h-65v262h-96v57h257v-57z" />
    <glyph glyph-name="minus" unicode="&#x2212;" horiz-adv-x="507" 
d="M52 338h400v-81h-400v81z" />
    <glyph glyph-name="approxequal" unicode="&#x2248;" horiz-adv-x="513" 
d="M336 163q-25 0 -45 6.5t-37.5 15t-32.5 15t-30 6.5q-19 0 -27 -9.5t-12 -21.5l-4 -14l-85 6l7 38q7 36 33 60t74 24q24 0 44 -6.5t37.5 -15t33 -15t30.5 -6.5q19 0 27 9.5t12 21.5l5 14l84 -6l-7 -39q-6 -35 -32.5 -59t-74.5 -24zM336 357q-25 0 -45 6.5t-37.5 15
t-32.5 15t-30 6.5q-19 0 -27 -9.5t-12 -21.5l-4 -14l-85 6l7 39q8 35 33.5 59t73.5 24q24 0 44 -6.5t37.5 -15t33 -15t30.5 -6.5q19 0 27 9.5t12 21.5l5 14l84 -6l-7 -38q-8 -36 -33.5 -60t-73.5 -24z" />
    <glyph glyph-name="notequal" unicode="&#x2260;" horiz-adv-x="486" 
d="M54 429h201l44 114l68 -24l-35 -90h101v-80h-131l-49 -129h180v-80h-211l-42 -111l-68 24l33 87h-91v80h121l50 129h-171v80z" />
    <glyph glyph-name="uniF6C3" unicode="&#xf6c3;" horiz-adv-x="214" 
d="M43 -97q0 26 17 43.5t49 17.5q31 0 49.5 -19.5t18.5 -49.5q-1 -34 -23 -71l-28 -48h-67l26 42q3 5 6.5 9t5.5 7q3 4 5 6v3q-29 2 -44 19t-15 41z" />
    <glyph glyph-name="uniF8FF" unicode="&#xf8ff;" horiz-adv-x="1209" 
d="M576 486q0 22 14.5 36.5t36.5 14.5t36.5 -14.5t14.5 -36.5t-14.5 -36.5t-36.5 -14.5t-36.5 14.5t-14.5 36.5zM83 225q0 55 1 103t3 83q2 41 4 76h83q2 -35 4 -76q2 -35 3 -83t1 -103h-99zM578 225q0 77 3 122h-51l2 -54q1 -1 3 -2t10 -1t12 2q2 1 3 2v-62q-3 -3 -10 -6
q-6 -2 -17 -4t-28 -2q-70 0 -70 55q0 8 0.5 19.5t1 22.5t1 19.5t0.5 10.5h-18v66l99 25l1 -14h148q2 -18 4 -45q2 -24 3.5 -61.5t1.5 -92.5h-99zM273 221q-35 0 -55.5 23t-20.5 71q0 54 26.5 83.5t87.5 29.5q51 0 75.5 -25.5t25.5 -71.5v-106h-70l-6 51q-5 -26 -19 -40.5
t-44 -14.5zM813 225q0 29 1 46t1 34q0 22 -13 22q-15 0 -15 -22q0 -17 1.5 -34t1.5 -46h-95q0 55 1 92.5t3 61.5q2 27 4 45h67l2 -22q1 -10 2 -20.5t1 -20.5q0 2 2 13t9 23t20.5 21.5t35.5 9.5q35 0 48.5 -20.5t15.5 -67.5l2 -115h-95zM1126 320q0 -44 -25 -71.5t-79 -27.5
q-53 0 -76.5 28.5t-23.5 70.5q0 22 4.5 41.5t16 34.5t31 23.5t49.5 8.5q32 0 52 -8.5t31.5 -23.5t15.5 -34.5t4 -41.5zM325 312q0 22 -19 22t-19 -22q0 -25 19 -25t19 25zM1042 312q0 22 -19 22q-17 0 -17 -22q0 -25 17 -25q19 0 19 25zM443 198q2 -16 4 -34q2 -17 3.5 -39
t1.5 -49q0 -61 -29 -89.5t-96 -28.5q-23 0 -37.5 2t-22.5 5q-10 3 -15 7v70q5 -4 13 -7q7 -3 17.5 -5t26.5 -2q17 0 26 3.5t14 8.5t6 12q-4 -3 -9 -5q-12 -5 -32 -5q-75 0 -75 70v10h-46l3 -54q1 -1 3 -2t9 -1q8 0 12 2q2 1 3 2v-61q-3 -3 -10 -6q-6 -2 -17 -4t-29 -2
q-68 0 -68 53q0 8 0.5 19t1 21.5t1 19.5t0.5 13h-15v67l97 24l-1 -14l148 -1v-99q0 -13 2 -17.5t9 -4.5q8 0 11.5 4.5t3.5 17.5v99h86zM611 202q31 0 48.5 -23.5t17.5 -69.5q0 -57 -27.5 -85t-86.5 -28v-8q0 -5 0.5 -11t0.5 -14h-99q0 54 1 97t3 74q2 36 4 64h65
q1 -13 3 -24q1 -10 2 -20.5t1 -18.5q0 2 3 13t10.5 23t20 21.5t33.5 9.5zM892 107q0 -13 -2 -23q-1 -4 -1 -7h-103q3 -4 8 -8q10 -7 33 -7q21 0 34 5q7 2 12 5v-63q-5 -4 -14 -7q-8 -2 -20.5 -4t-30.5 -2q-59 0 -88 26t-29 71q0 54 27 81.5t78 27.5q45 0 70.5 -25t25.5 -70z
M815 91q3 22 -14 22q-19 0 -19 -22h33zM558 60q8 1 15 5q6 3 11 9.5t5 17.5q0 18 -17 18q-8 0 -13 -6t-5 -21q0 -8 2 -16q1 -4 2 -7zM896 11q0 18 19 18q8 0 13 -5t5 -13t-5 -13.5t-13 -5.5q-19 0 -19 19zM900 11q0 -7 4.5 -11t10.5 -4q5 0 9.5 4t4.5 11q0 6 -4.5 10.5
t-9.5 4.5q-6 0 -10.5 -4.5t-4.5 -10.5zM923 2h-5l-3 7h-4v-7h-4v19h9q8 0 8 -6t-6 -6zM916 12q4 0 4 4q0 1 -5 1h-4v-5h5z" />
    <glyph glyph-name="uniFB01" unicode="&#xfb01;" horiz-adv-x="562" 
d="M460 470q-25 0 -41.5 16.5t-16.5 41.5t16.5 42t41.5 17t42 -17t17 -42t-17 -41.5t-42 -16.5zM411 346h98v-346h-98v346zM193 269v-269h-98v269h-77v77h77v142q0 91 42 134.5t114 43.5q38 0 59 -8.5t23 -9.5l-25 -85l-14 6q-6 2 -13.5 4t-15.5 2q-37 0 -54.5 -21
t-17.5 -66v-142h116v-77h-116z" />
    <glyph glyph-name="uniFB02" unicode="&#xfb02;" horiz-adv-x="556" 
d="M403 668h98v-668h-98v668zM193 269v-269h-98v269h-77v77h77v142q0 91 42 134.5t114 43.5q38 0 59 -8.5t23 -9.5l-25 -85l-14 6q-6 2 -13.5 4t-15.5 2q-37 0 -54.5 -21t-17.5 -66v-142h116v-77h-116z" />
    <glyph glyph-name="glyph341" horiz-adv-x="775" 
d="M177 0h-99v600h99v-600zM374 117q14 -10 31 -18q14 -7 33.5 -12t42.5 -5q60 0 90.5 32t31.5 104v382h100v-401q0 -47 -13.5 -86.5t-40 -67.5t-66.5 -43.5t-95 -15.5q-38 0 -67 7t-49 16t-31 17t-13 10zM684 638h-62v16l38 142h114v-16zM159 638h-62v16l38 142h114v-16z
" />
    <glyph glyph-name="glyph343" horiz-adv-x="531" 
d="M216 -48l24 48h-24v512h-202v88h503v-88h-202v-512h-26l-13 -30q28 0 47 -16t19 -48t-21.5 -52.5t-63.5 -20.5q-21 0 -36.5 5t-25.5 11q-11 7 -19 16l21 36q6 -7 15 -11q8 -5 18.5 -8t24.5 -3q38 0 38 29q0 14 -10 21.5t-26 7.5q-6 0 -10 -1t-7 -2l-6 -3z" />
    <glyph glyph-name="glyph345" horiz-adv-x="205" 
d="M103 470q-25 0 -41.5 16.5t-16.5 41.5t16.5 42t41.5 17t42 -17t17 -42t-17 -41.5t-42 -16.5zM54 346h98v-346h-98v346z" />
    <glyph glyph-name="glyph346" horiz-adv-x="469" 
d="M54 346h98v-346h-98v346zM253 -111q4 -2 9 -4q10 -4 21 -4q35 0 35 43v422h99v-426q0 -57 -25 -89t-85 -32q-17 0 -29.5 2.5t-21.5 5.5q-11 4 -18 9zM399 419h-62v16l38 142h114v-16zM135 419h-62v16l38 142h114v-16z" />
    <glyph glyph-name="glyph348" horiz-adv-x="329" 
d="M141 -48l24 49q-41 14 -62.5 49t-21.5 90v128h-65v78h65v104h98v-104h121v-78h-121v-124q0 -36 15 -52.5t44 -16.5q10 0 18 2t14 4q7 3 13 7l32 -67q-10 -9 -23 -15q-11 -5 -28.5 -9.5t-40.5 -4.5q-3 0 -6 0.5t-6 0.5l-10 -23q28 0 47 -16t19 -48t-21.5 -52.5
t-63.5 -20.5q-21 0 -36.5 5t-25.5 11q-11 7 -19 16l21 36q6 -7 15 -11q8 -5 18.5 -8t24.5 -3q38 0 38 29q0 14 -10 21.5t-26 7.5q-6 0 -10 -1t-7 -2l-6 -3z" />
    </font>
</defs>
</svg>
